<svg viewBox="0 0 78 20" fill="none" xmlns="http://www.w3.org/2000/svg"><path d="M5.15994 0.666016L0.0266113 15.666H3.02661L4.49328 11.3327H8.69328L10.1599 15.7327H13.2266L8.09328 0.666016H5.15994ZM7.89328 8.79935H5.22661L6.35994 5.53268C6.42661 5.33268 6.49328 5.06602 6.55995 4.86602C6.62661 5.06602 6.69328 5.33268 6.75994 5.53268L7.89328 8.79935Z" fill="#B8B8B8"/><path fill-rule="evenodd" clip-rule="evenodd" d="M18.4266 8.80065C17.0266 8.26732 16.8932 8.00065 16.8932 7.60065C16.8932 7.06732 17.2932 6.80065 17.9599 6.80065C18.7599 6.80065 19.3599 7.13398 19.6932 7.33398L20.2932 7.66732L21.0932 5.26732L20.7599 5.06732C20.0932 4.60065 19.0932 4.33398 18.0266 4.33398C15.7599 4.33398 14.0266 5.80065 14.0266 7.86732C14.0266 9.73398 15.6266 10.6673 17.0266 11.2673C18.3599 11.8007 18.4932 12.134 18.4932 12.534C18.4932 13.334 17.6266 13.4673 17.1599 13.4673C16.3599 13.4673 15.4932 13.134 15.0266 12.8673L14.4266 12.534L13.6932 14.934L14.0932 15.134C14.9599 15.6007 16.0266 15.934 17.1599 15.934C19.6932 15.934 21.4266 14.534 21.4266 12.334C21.3599 10.2007 19.6932 9.26732 18.4266 8.80065Z" fill="#B8B8B8"/><path fill-rule="evenodd" clip-rule="evenodd" d="M26.0266 1.80078L23.1599 2.66745V4.40078H21.6266V6.86745H23.1599V11.8674C23.1599 13.2674 23.4266 14.2008 24.0266 14.8674C24.5599 15.4674 25.4266 15.8008 26.3599 15.8008C27.2266 15.8008 27.8266 15.6008 28.1599 15.5341L28.5599 15.4008L28.4266 12.9341L27.7599 13.1341C27.5599 13.2008 27.3599 13.2008 26.8933 13.2008C26.5599 13.2008 26.0933 13.2008 26.0933 11.8008V6.86745H28.6933V4.46745H26.0933L26.0266 1.80078Z" fill="#B8B8B8"/><path fill-rule="evenodd" clip-rule="evenodd" d="M35.8933 4.46732L35.3599 4.40065C35.2266 4.40065 35.0266 4.33398 34.8266 4.33398C33.8933 4.33398 33.0266 4.73398 32.3599 5.33398V4.53398H29.6266L29.6933 5.13398C29.6933 5.93398 29.6933 6.93398 29.6933 8.20065V15.6673H32.6933V9.73398C32.6933 9.46732 32.6933 9.20065 32.7599 9.00065C32.9599 7.86732 33.6933 7.13398 34.6933 7.13398C34.8933 7.13398 35.0933 7.13398 35.2266 7.13398L35.8933 7.26732V4.46732Z" fill="#B8B8B8"/><path d="M41.0933 4.33398C37.8266 4.33398 35.4266 6.73398 35.4266 10.2007C35.4266 13.6007 37.6266 15.934 40.8933 15.934C43.56 15.934 46.56 14.134 46.56 10.0673C46.56 6.66732 44.36 4.33398 41.0933 4.33398ZM43.6266 10.134C43.6266 12.0673 42.56 13.534 41.0933 13.534C39.6266 13.534 38.56 12.134 38.56 10.2673C38.56 9.06732 39.0933 6.86732 41.0933 6.86732C43.0266 6.80065 43.6266 8.93398 43.6266 10.134Z" fill="#B8B8B8"/><path d="M56.0266 1.73346C55.0933 0.866797 53.6266 0.466797 51.6933 0.466797C50.4266 0.466797 49.2266 0.533464 48.0933 0.733464L47.6266 0.80013V15.6668H50.4933V10.1335C50.7599 10.1335 51.0933 10.2001 51.4266 10.2001C53.3599 10.2001 55.0932 9.60013 56.1599 8.53346C56.9599 7.73346 57.3599 6.60013 57.3599 5.13346C57.4933 3.80013 57.0266 2.53346 56.0266 1.73346ZM54.5599 5.20013C54.5599 7.2668 52.6933 7.60013 51.6266 7.60013C51.2266 7.60013 50.9599 7.60013 50.6933 7.53346V3.00013C50.9599 2.93346 51.3599 2.93346 51.8266 2.93346C53.0266 2.93346 54.5599 3.40013 54.5599 5.20013Z" fill="#B8B8B8"/><path d="M66.2932 12.7323V8.93229C66.2932 5.99896 64.7599 4.26562 61.8266 4.26562C60.4932 4.26562 59.1599 4.59896 58.1599 5.19896L57.8266 5.39896L58.6266 7.66562L59.2266 7.26562C59.8266 6.86562 60.6932 6.59896 61.5599 6.59896C62.1599 6.59896 62.5599 6.73229 62.8932 6.99896C63.1599 7.19896 63.2932 7.59896 63.2932 7.99896C61.0266 8.06562 59.2932 8.59896 58.2266 9.59896C57.4932 10.2656 57.1599 11.199 57.1599 12.199C57.1599 13.8656 58.4266 15.6656 60.8932 15.6656C61.8932 15.6656 62.8932 15.3323 63.6266 14.799L63.6932 15.4656H66.4932L66.4266 14.8656C66.3599 14.399 66.2932 13.6656 66.2932 12.7323ZM61.3599 13.4656C60.8932 13.4656 60.2266 13.3323 60.2266 12.2656C60.2266 11.8656 60.3599 11.5323 60.6266 11.3323C60.9599 10.999 61.7599 10.599 63.4266 10.599V11.799C63.4266 11.8656 63.4266 12.0656 63.3599 12.199C63.0932 12.7323 62.4932 13.4656 61.3599 13.4656Z" fill="#B8B8B8"/><path fill-rule="evenodd" clip-rule="evenodd" d="M74.2933 4.53346L72.16 10.7335C72.0933 10.8668 72.0266 11.0668 72.0266 11.2001C71.96 11.0668 71.8933 10.8668 71.8933 10.7335L69.56 4.4668H66.36L70.4266 14.3335C70.4933 14.4668 70.4933 14.5335 70.4933 14.5335C70.4933 14.6001 70.4266 14.6668 70.4266 14.7335C70.0933 15.4668 69.56 16.1335 69.0267 16.5335C68.4267 17.0001 67.8267 17.2668 67.6267 17.3335L67.0933 17.4668L67.8266 19.9335L68.2933 19.8668C68.56 19.8001 69.6266 19.6001 70.8266 18.6001C72.2266 17.4001 73.16 15.4001 74.4933 12.1335L77.56 4.53346H74.2933Z" fill="#B8B8B8"/><path fill-rule="evenodd" clip-rule="evenodd" d="M10.9599 4.6C12.8266 2.73333 16.0266 1.66667 19.4933 1.66667C20.8266 1.66667 22.1599 1.8 23.4266 2.13333H23.4933L25.6933 1.46667L24.6933 1.06667C22.8266 0.4 20.6266 0 18.3599 0C15.1599 0 12.0933 0.733333 9.8266 2.13333L9.55994 2.26667L10.4933 4.93333L10.9599 4.6Z" fill="#B8B8B8"/></svg>