<svg viewBox="0 0 143 20" fill="none" xmlns="http://www.w3.org/2000/svg"><path d="M128.026 10.4324C127.493 10.1002 126.893 9.83438 126.426 9.50215C125.959 9.16993 125.826 8.57196 126.026 8.0404C126.226 7.50884 126.693 7.44238 127.159 7.44238C127.893 7.44238 128.626 7.44238 129.293 7.44238C129.426 7.44238 129.626 7.24302 129.626 7.17658C129.693 6.71146 129.626 6.24637 129.626 5.78125C128.293 5.78125 127.093 5.78125 125.826 5.78125C125.426 5.78125 124.959 5.78126 124.559 5.91415C123.626 6.11348 122.826 6.64504 122.559 7.57527C122.293 8.70484 122.226 9.76794 123.226 10.6317C123.826 11.0968 124.493 11.4955 125.226 11.8942C125.893 12.2929 126.559 12.5586 127.226 12.9573C127.693 13.2895 127.759 13.6882 127.626 14.2198C127.426 14.6849 127.093 14.8842 126.559 14.8842C125.426 14.8842 124.293 14.8842 123.159 14.8842C122.893 14.8842 122.759 14.8178 122.693 14.552C122.559 13.954 122.359 13.4224 122.159 12.8244C121.426 10.4988 120.759 8.10683 120.026 5.78125C119.026 5.78125 118.093 5.78125 117.159 5.78125C116.759 5.78125 116.559 5.91413 116.426 6.3128C115.826 8.3726 115.159 10.4989 114.493 12.5587C114.226 13.4889 113.893 14.4855 113.559 15.4822C113.226 14.7513 112.893 14.0869 112.626 13.4224C112.293 12.758 112.026 12.0935 111.759 11.4291C112.493 11.2297 113.093 10.964 113.359 10.2995C113.559 9.83439 113.693 9.36929 113.693 8.90417C113.759 7.37594 113.159 5.8477 111.026 5.78125C109.759 5.78125 108.426 5.78125 107.159 5.78125C106.693 5.78125 106.159 5.78125 105.693 5.78125C105.693 9.43573 105.693 12.9573 105.693 16.5454C106.626 16.5454 107.559 16.5454 108.559 16.5454C108.559 13.4889 108.559 10.4988 108.559 7.5088C110.093 7.37591 110.759 7.70817 110.893 8.70485C110.959 9.16996 110.826 9.70149 110.693 10.1666C110.426 10.8975 109.626 10.4988 109.093 10.7646C109.093 10.8311 109.093 10.8975 109.093 10.964C109.893 12.758 110.693 14.6184 111.493 16.4125C111.559 16.5453 111.826 16.6782 111.959 16.6782C113.226 16.6782 114.493 16.6782 115.693 16.6782C116.026 16.6782 116.159 16.5454 116.226 16.2131C116.359 15.5487 116.559 14.8842 116.759 14.2862C117.693 14.2862 118.626 14.2862 119.559 14.2862C119.759 14.9507 119.959 15.6151 120.159 16.2796C120.226 16.6118 120.359 16.6782 120.693 16.6782C123.093 16.6782 125.493 16.6782 127.826 16.6118C128.893 16.6118 129.826 16.2795 130.226 15.15C130.626 14.0204 130.826 12.8244 129.893 11.8942C129.426 11.2297 128.693 10.8975 128.026 10.4324ZM117.226 12.4258C117.493 11.0969 117.826 9.70152 118.093 8.37262H118.159C118.493 9.70152 118.826 11.0304 119.159 12.4258C118.559 12.4258 117.959 12.4258 117.226 12.4258Z" fill="#B8B8B8"/><path d="M33.8261 11.6953C33.4928 10.4993 32.6928 10.0342 31.5595 9.76837C33.6261 8.97103 33.8928 7.70859 33.6928 6.04747C33.4928 4.38634 32.4928 3.58899 30.4261 3.4561C28.4261 3.3232 26.4261 3.38967 24.4928 3.38967C24.3595 3.38967 24.1595 3.38965 24.0261 3.4561C24.0261 7.90791 24.0261 12.2269 24.0261 16.6787C24.5595 16.6787 25.0928 16.6787 25.5595 16.6787C27.3595 16.6122 29.2261 16.6787 31.0261 16.5458C32.3595 16.4129 33.4261 15.7484 33.8261 14.3531C34.0928 13.3564 34.0261 12.4926 33.8261 11.6953ZM27.3595 5.31655C28.0261 5.38299 28.6928 5.38301 29.2928 5.58234C29.9595 5.78168 30.4261 6.57902 30.3595 7.24347C30.2928 8.04081 29.7595 8.57235 28.9595 8.6388C28.4261 8.70524 27.9595 8.70527 27.3595 8.70527C27.3595 7.64215 27.3595 6.51256 27.3595 5.31655ZM30.4928 12.8248C30.3595 13.9544 29.8928 14.2866 28.7595 14.4195C28.2928 14.486 27.8261 14.486 27.3595 14.486C27.3595 13.2235 27.3595 12.0275 27.3595 10.6986C28.0261 10.7651 28.6928 10.6986 29.2928 10.8315C30.3595 11.1637 30.6261 11.961 30.4928 12.8248Z" fill="#B8B8B8"/><path d="M102.359 9.70103C103.426 9.36881 104.093 8.83722 104.426 7.84054C105.226 5.58141 103.693 3.38873 101.226 3.32229C99.2925 3.32229 97.2925 3.3223 95.3592 3.25586C94.8925 3.25586 94.7592 3.38873 94.7592 3.85384C94.7592 7.90699 94.7592 11.9602 94.7592 16.0133C94.7592 16.1462 94.7592 16.3455 94.7592 16.5449C94.9592 16.5449 95.0925 16.5449 95.2925 16.5449C96.8925 16.5449 98.4925 16.5449 100.026 16.5449C100.626 16.5449 101.226 16.4784 101.826 16.412C104.359 16.0133 105.626 13.2891 104.359 11.0299C103.959 10.2326 103.226 9.96681 102.359 9.70103ZM98.2925 5.51497C98.9592 5.51497 99.6259 5.44852 100.293 5.51497C101.026 5.64786 101.426 6.4452 101.359 7.30899C101.293 8.17277 100.759 8.70436 99.9592 8.70436C99.4259 8.70436 98.8925 8.70436 98.2925 8.70436C98.2925 7.64124 98.2925 6.57809 98.2925 5.51497ZM101.026 13.9535C100.826 14.2193 100.359 14.4186 99.9592 14.485C99.4925 14.5515 99.0259 14.5515 98.4925 14.485C98.3592 14.485 98.2259 14.2857 98.2259 14.2193C98.2259 13.0897 98.2259 12.0266 98.2259 10.8306C98.9592 10.8306 99.6259 10.7641 100.226 10.8306C100.559 10.897 100.959 11.1628 101.093 11.4286C101.559 12.2924 101.626 13.2226 101.026 13.9535Z" fill="#B8B8B8"/><path d="M19.8934 13.1548C18.6267 12.2911 17.36 11.4273 16.0267 10.5635C15.8934 10.4971 15.6934 10.5635 15.56 10.6299C14.4934 11.2944 13.4267 12.0253 12.4267 12.7562C11.8934 13.0884 11.4267 13.4206 10.8933 13.8193C11.6267 14.2844 12.2267 14.7496 12.96 15.2147C12.16 15.7462 11.4267 16.2113 10.6934 16.7429C10.4267 16.9422 10.2267 16.9422 9.96002 16.7429C8.62668 15.8791 7.36002 15.0153 6.02668 14.1515C5.56002 13.8193 5.09335 13.5535 4.62668 13.2213C7.82668 11.0951 10.96 9.03528 14.16 6.90904C13.4267 6.44393 12.76 5.97879 12.0267 5.51367C8.09335 8.10503 4.16002 10.7629 0.226685 13.3542C0.293351 13.4207 0.360018 13.4871 0.360018 13.4871C3.56002 15.6133 6.76002 17.7396 9.96002 19.7994C10.0934 19.8658 10.36 19.8658 10.4934 19.7994C11.0934 19.4007 11.6934 19.002 12.2934 18.6033C14.8934 16.8758 17.4934 15.1482 20.0934 13.4206C19.96 13.2213 19.96 13.2213 19.8934 13.1548Z" fill="#B8B8B8"/><path d="M9.75946 0.266355C8.09279 1.39592 6.42612 2.45904 4.69279 3.58861C3.15946 4.58528 1.62612 5.58194 0.026123 6.64506C1.42612 7.57529 2.69279 8.43908 4.02612 9.30286C4.15946 9.36931 4.35946 9.30288 4.49279 9.23643C5.69279 8.43909 6.89279 7.64173 8.09279 6.84439C8.42612 6.57861 8.82612 6.37929 9.22612 6.11351C8.49279 5.64839 7.89279 5.18329 7.15946 4.71818C8.02612 4.18662 8.75946 3.65504 9.55946 3.12348C9.62612 3.05704 9.89279 3.05704 9.95946 3.12348C11.8261 4.31949 13.6261 5.58195 15.4928 6.77796C12.2928 8.9042 9.15946 10.964 5.95946 13.0902C6.62612 13.4889 7.22612 13.8211 7.75946 14.2862C8.02612 14.4856 8.22612 14.4856 8.49279 14.2862C11.4928 12.2929 14.4261 10.2996 17.4261 8.37266C18.2928 7.8411 19.0928 7.24307 19.9595 6.64506C16.6928 4.45238 13.4261 2.32613 10.2261 0.199886C10.2261 0.133441 9.89279 0.133465 9.75946 0.266355Z" fill="#B8B8B8"/><path d="M50.7589 12.5587C50.6256 12.3593 50.6256 12.2929 50.5589 12.16C49.7589 10.1666 48.8922 8.17328 48.0922 6.17993C48.0256 6.04704 47.8922 5.78127 47.7589 5.78127C46.6922 5.78127 45.6256 5.78127 44.4922 5.78127C44.4922 9.43575 44.4922 12.9573 44.4922 16.5454C45.2922 16.5454 46.0923 16.5454 46.8923 16.5454C46.8923 14.2862 46.8923 12.0271 46.8923 9.63508C47.0256 9.83441 47.0256 9.96733 47.0922 10.0338C47.9589 12.0936 48.8256 14.0869 49.6923 16.1467C49.8256 16.4789 49.9589 16.6118 50.2923 16.5454C51.0923 16.5454 51.8923 16.5454 52.6923 16.5454C52.8256 16.5454 53.0256 16.5454 53.1589 16.4789C53.1589 12.8909 53.1589 9.30288 53.1589 5.71484C52.3589 5.71484 51.5589 5.71484 50.7589 5.71484C50.7589 8.04042 50.7589 10.2331 50.7589 12.5587Z" fill="#B8B8B8"/><path d="M68.8258 5.64773C67.8258 5.4484 66.8925 5.38197 65.8925 5.5813C64.4258 5.78064 63.3591 6.71084 63.0925 8.17263C62.7591 10.0995 62.7591 12.0265 63.0258 13.9534C63.2258 15.3487 64.0258 16.4118 65.4925 16.7441C66.4925 17.0098 67.5591 17.0098 68.6258 16.8105C70.0925 16.4783 70.9591 15.548 71.2258 14.0863C71.3591 13.156 71.4258 12.1594 71.4925 11.2291C71.4258 10.2325 71.3591 9.23576 71.2258 8.30553C71.0258 6.91019 70.2258 5.97996 68.8258 5.64773ZM68.2925 14.0863C68.2258 14.95 67.6258 15.2822 66.8258 15.1494C66.3591 15.0829 65.9591 14.4849 65.8925 13.6876C65.8258 12.8238 65.8258 12.0265 65.7591 10.8969C65.8258 10.166 65.8925 9.16931 66.0258 8.17263C66.1591 7.37529 66.8258 6.97663 67.5591 7.30886C67.8258 7.44175 68.0925 7.77399 68.2258 8.03978C68.3591 8.50489 68.4925 9.10287 68.4925 9.63443C68.4925 11.0962 68.4258 12.558 68.2925 14.0863Z" fill="#B8B8B8"/><path d="M89.2929 5.64657C88.4929 5.51368 87.6929 5.51367 86.8929 5.51367C85.2929 5.58012 84.0929 6.44393 83.7595 8.03862C83.3595 10.032 83.3595 12.0253 83.6929 14.0187C83.9595 15.5469 84.9595 16.5436 86.4929 16.7429C87.2262 16.8758 88.0262 16.8093 88.7595 16.7429C90.2929 16.6765 91.4262 15.7462 91.7595 14.2844C91.9595 13.2877 92.0262 12.2247 92.0929 11.3609C92.0262 10.2313 91.9595 9.30107 91.8262 8.37084C91.6929 6.90905 90.7595 5.91235 89.2929 5.64657ZM88.8929 14.2844C88.7595 14.9489 88.4262 15.2146 87.7595 15.1482C87.1595 15.1482 86.8262 14.8824 86.6929 14.218C86.5595 13.2213 86.4929 12.1582 86.3595 11.1615C86.4262 10.0984 86.4929 9.10172 86.6929 8.10504C86.8262 7.44059 87.1595 7.1748 87.7595 7.1748C88.4262 7.1748 88.8262 7.37416 88.8929 8.03862C89.0929 9.43396 89.0929 10.8293 89.1595 12.2246C89.1595 12.9555 89.0262 13.62 88.8929 14.2844Z" fill="#B8B8B8"/><path d="M79.9592 5.84776C79.0925 5.71487 78.2925 5.71488 77.4258 5.64844C76.4258 5.64844 75.4258 5.64844 74.4258 5.64844C74.4258 9.30291 74.4258 12.891 74.4258 16.5454C74.6258 16.5454 74.7592 16.5454 74.8925 16.5454C76.2925 16.5454 77.6925 16.5454 79.0258 16.5454C80.6258 16.5454 82.0258 15.4823 82.3592 13.9541C82.7592 12.0272 82.7592 10.0338 82.2925 8.10691C81.9592 6.9109 81.2258 6.0471 79.9592 5.84776ZM79.6258 13.0903C79.6258 13.4225 79.4925 13.8212 79.3592 14.1534C79.1592 14.6185 78.7592 14.8843 78.2925 14.8843C77.9592 14.8843 77.6258 14.8843 77.1592 14.8843C77.1592 12.4258 77.1592 9.96736 77.1592 7.50889C77.6258 7.50889 78.0925 7.44244 78.5592 7.50889C79.2258 7.64178 79.5592 8.2398 79.6258 9.10359C79.6925 10.4325 79.6925 11.7614 79.6258 13.0903Z" fill="#B8B8B8"/><path d="M40.7597 6.04705C40.693 5.91416 40.493 5.78125 40.3597 5.78125C39.493 5.78125 38.5597 5.78125 37.693 5.78125C37.3597 5.78125 37.2264 5.91412 37.1597 6.1799C36.3597 8.8377 35.493 11.562 34.693 14.2198C34.4264 14.9507 34.2264 15.748 33.9597 16.5454C34.8931 16.5454 35.693 16.5454 36.493 16.5454C36.6264 16.5454 36.8264 16.346 36.8264 16.2131C37.0264 15.6816 37.1597 15.0835 37.3597 14.4855C37.4264 14.3526 37.5597 14.1533 37.6264 14.1533C38.4931 14.1533 39.3597 14.1533 40.2264 14.1533C40.4264 14.8842 40.6264 15.6151 40.8264 16.2796C40.893 16.4124 41.0264 16.5454 41.1597 16.5454C42.0264 16.5454 42.893 16.5454 43.8264 16.5454C43.8264 16.4125 43.8264 16.346 43.8264 16.346C42.8264 12.8909 41.8264 9.50219 40.7597 6.04705ZM37.893 12.4258C38.2264 11.0304 38.493 9.76795 38.8264 8.43905H38.893C39.2264 9.76795 39.5597 11.0969 39.893 12.4258C39.1597 12.4258 38.5597 12.4258 37.893 12.4258Z" fill="#B8B8B8"/><path d="M59.4259 12.9576C59.3592 13.3563 59.3592 13.6885 59.2926 14.0872C59.2259 14.8845 58.8259 15.2167 58.0926 15.1503C57.6259 15.0838 57.2926 14.818 57.2259 14.1536C57.1592 13.4891 57.0259 12.8247 57.0926 12.1602C57.1592 10.6985 57.2259 9.30311 57.3592 7.84132C57.4259 7.30976 57.8259 7.11044 58.3592 7.11044C58.8926 7.11044 59.1592 7.44267 59.2926 7.90779C59.3592 8.30646 59.4259 8.70512 59.4259 9.10379C60.2926 9.10379 61.2259 9.10379 62.1592 9.10379C62.2925 7.30978 61.4925 6.04731 59.8259 5.64864C59.1592 5.51575 58.4259 5.38287 57.6926 5.44931C56.0926 5.5822 54.8259 6.11375 54.4925 8.17354C54.1592 10.1669 54.2259 12.1602 54.4259 14.1536C54.5592 15.4161 55.2926 16.2799 56.6259 16.6785C57.7592 17.0108 58.8926 17.0107 60.0259 16.745C61.6259 16.2799 62.4925 14.7516 62.1592 13.0241C61.2259 12.9576 60.3592 12.9576 59.4259 12.9576Z" fill="#B8B8B8"/><path d="M141.493 14.8178C140.626 14.8178 139.76 14.8178 138.826 14.8178C138.826 11.7613 138.826 8.77131 138.826 5.71484C137.826 5.71484 136.893 5.71484 135.96 5.71484C135.96 9.30288 135.96 12.8909 135.96 16.4789C138.026 16.4789 140.026 16.4789 142.026 16.4789C142.026 16.0802 142.026 15.6816 142.026 15.3494C142.026 14.9507 141.893 14.8178 141.493 14.8178Z" fill="#B8B8B8"/><path d="M131.626 16.5454C132.56 16.5454 133.426 16.5454 134.36 16.5454C134.36 12.8909 134.36 9.36928 134.36 5.78125C133.426 5.78125 132.493 5.78125 131.626 5.78125C131.626 9.36928 131.626 12.9573 131.626 16.5454Z" fill="#B8B8B8"/><path d="M1.9592 15.8809C1.42586 16.2131 0.825863 16.6118 0.292529 17.0105C0.159196 17.0769 0.0925293 17.2762 0.0925293 17.4091C0.0925293 18.2065 0.0925293 19.0038 0.0925293 20.0005C1.5592 19.0038 2.9592 18.14 4.3592 17.2098C3.69253 16.7447 3.09253 16.346 2.42586 15.9473C2.29253 15.748 2.09253 15.8145 1.9592 15.8809Z" fill="#B8B8B8"/><path d="M18.1595 4.05317C18.6928 3.72095 19.2261 3.32225 19.7595 2.99003C19.8928 2.92358 19.9595 2.79069 19.9595 2.6578C19.9595 1.79402 19.9595 0.996675 19.9595 0C18.4928 0.996675 17.1595 1.86047 15.7595 2.7907C16.4261 3.25581 17.0928 3.72093 17.6928 4.1196C17.8928 4.18604 18.0928 4.11962 18.1595 4.05317Z" fill="#B8B8B8"/></svg>