<svg viewBox="0 0 90 20" fill="none" xmlns="http://www.w3.org/2000/svg"><path d="M3.15358 6.62193C2.98116 6.63055 2.80013 6.6909 2.6191 6.734C2.10186 6.84607 1.58461 6.97538 1.07599 7.12193C1.00703 7.13917 0.929441 7.16504 0.851855 7.16504C0.705303 7.16504 0.601856 7.09607 0.541511 6.95814C0.481166 6.82883 0.498407 6.70814 0.610476 6.59607C0.679441 6.51848 0.774269 6.47538 0.869096 6.42366C1.65358 5.99262 2.48979 5.66503 3.34324 5.38917C3.48117 5.34607 3.56737 5.2771 3.62772 5.13055C4.74841 2.51848 6.68806 0.837449 9.47254 0.259862C12.5932 -0.386689 15.2312 0.587449 17.3605 2.9409C17.4036 2.984 17.4381 3.03572 17.4725 3.08745C17.5588 3.234 17.5501 3.36331 17.4294 3.484C17.3088 3.61331 17.1708 3.63917 17.0243 3.56159C16.9639 3.5271 16.9122 3.484 16.8519 3.4409C15.9294 2.6909 14.8777 2.21676 13.7139 2.00124C11.2312 1.54435 9.05013 2.17366 7.18806 3.88917C6.9553 4.10469 6.74841 4.33745 6.53289 4.62193C6.74841 4.58745 6.93806 4.57021 7.1191 4.54435C8.42944 4.34607 9.74841 4.26848 11.076 4.31159C12.9898 4.37193 14.8777 4.63917 16.6967 5.25124C17.6622 5.57883 18.576 5.99262 19.4122 6.57883C19.9467 6.95814 20.4208 7.38917 20.7829 7.9409C21.4639 8.99262 21.4984 10.0702 20.8863 11.1564C20.5415 11.7685 20.0415 12.2599 19.4898 12.6909C18.6191 13.3719 17.6363 13.8719 16.6105 14.2943C16.2139 14.4581 15.8174 14.6047 15.4122 14.734C15.2915 14.7685 15.1794 14.8116 15.0501 14.7685C14.8087 14.6909 14.7398 14.415 14.9208 14.2426C15.0329 14.1306 15.1708 14.0788 15.3087 14.0099C15.826 13.7771 16.326 13.5185 16.8001 13.2168C17.3174 12.8892 17.8088 12.5099 18.2139 12.0443C18.3432 11.8978 18.4553 11.7426 18.5588 11.5788C18.9553 10.9237 18.9553 10.2685 18.5932 9.59607C18.4294 9.28572 18.2053 9.0271 17.9553 8.78572C17.3605 8.22538 16.6536 7.83745 15.9122 7.51848C14.895 7.07883 13.826 6.7771 12.7398 6.56159C10.9984 6.21676 9.24841 6.08745 7.48117 6.12193C6.88634 6.13055 6.30013 6.16504 5.7053 6.21676C5.58461 6.22538 5.54151 6.2771 5.49841 6.37193C5.15358 7.21676 4.98979 8.09607 4.99841 9.00986C5.02427 10.8461 5.65358 12.4409 6.9122 13.7771C7.03289 13.9064 7.17082 14.0271 7.30013 14.1564C7.40358 14.2599 7.4553 14.3892 7.39496 14.5357C7.31737 14.7168 7.17082 14.7943 6.98117 14.7512C6.87772 14.7254 6.79151 14.665 6.7053 14.6133C4.8691 13.3806 3.7053 11.6909 3.23979 9.5271C3.03289 8.57883 3.01565 7.63055 3.18806 6.67366C3.18806 6.67366 3.19668 6.65641 3.15358 6.62193ZM67.0932 19.3288C67.1105 19.4064 67.1622 19.4409 67.2225 19.4754C67.4036 19.5616 67.5846 19.6392 67.7829 19.6909C68.6363 19.9409 69.5156 20.0012 70.4036 19.9668C70.9208 19.9495 71.4294 19.8375 71.9036 19.6133C72.6191 19.2771 73.1277 18.7512 73.3346 17.9754C73.4467 17.5616 73.438 17.1392 73.3863 16.7254C73.2915 16.0185 72.938 15.4668 72.3346 15.0702C72.0587 14.8892 71.7656 14.7426 71.4553 14.6133C71.0415 14.4323 70.6191 14.2599 70.2053 14.0788C70.0674 14.0185 69.9294 13.9495 69.8174 13.8461C69.4553 13.5443 69.5329 13.0185 69.9725 12.8461C70.1277 12.7857 70.2915 12.7599 70.4553 12.7512C71.2656 12.7081 72.0587 12.8288 72.8432 13.0616C72.9984 13.1133 72.9984 13.1047 73.0243 12.9495C73.0846 12.5616 73.1018 12.165 73.0587 11.7771C72.9984 11.234 73.1018 11.3116 72.5587 11.1478C71.6277 10.8633 70.6622 10.7857 69.6967 10.9064C69.1708 10.9668 68.6794 11.1392 68.2312 11.4323C67.6708 11.803 67.2915 12.2943 67.1708 12.9668C67.1191 13.234 67.1277 13.5012 67.1536 13.7685C67.2139 14.4064 67.4898 14.9237 67.9984 15.3202C68.2139 15.484 68.438 15.6219 68.6794 15.7426C69.1708 15.9926 69.688 16.1737 70.1967 16.3892C70.3777 16.4668 70.5415 16.553 70.7139 16.6564C71.1277 16.9064 71.1277 17.6995 70.6018 17.9237C70.438 17.9926 70.2743 18.0357 70.1018 18.053C69.4812 18.1047 68.8777 18.0443 68.2743 17.9064C67.8863 17.8202 67.507 17.6909 67.1191 17.5616C66.9639 18.1392 66.9639 18.734 67.0932 19.3288ZM80.3777 17.7081C79.8518 17.9495 79.326 18.0271 78.7743 18.0012C78.2053 17.9754 77.7398 17.7426 77.3949 17.2857C77.2311 17.0616 77.1105 16.8116 77.0329 16.5443C76.8605 15.9495 76.8432 15.3374 76.9294 14.7254C76.9725 14.3719 77.0674 14.0357 77.2398 13.7254C77.4984 13.2685 77.8777 12.9754 78.3949 12.8633C78.7398 12.7943 79.0932 12.8116 79.4467 12.8461C79.7743 12.8892 80.0846 13.0012 80.4122 13.1133C80.5932 12.5012 80.8777 11.9495 81.257 11.4409C81.2225 11.4237 81.2053 11.4064 81.188 11.3978C81.1449 11.3719 81.1018 11.3547 81.0587 11.3374C80.0846 10.8719 79.0501 10.7599 77.9984 10.8806C76.4639 11.053 75.3691 11.8547 74.8001 13.2943C74.2829 14.6133 74.2829 15.9581 74.7139 17.303C75.1536 18.6478 76.0846 19.5012 77.4725 19.8288C78.4639 20.0616 79.4553 20.0012 80.438 19.734C80.7398 19.6564 81.0243 19.5443 81.3001 19.3806C80.8949 18.8719 80.5846 18.3288 80.3777 17.7081ZM36.645 11.2426C36.6018 11.0961 36.5329 11.0271 36.3777 11.0099C35.8518 10.9409 35.3346 10.9495 34.8087 11.0185C34.6277 11.0443 34.6277 11.0443 34.6277 11.2426C34.6277 14.0271 34.6277 16.803 34.6277 19.5875C34.6277 19.7943 34.6277 19.7943 34.826 19.8202C35.4984 19.9064 36.1708 19.8892 36.8432 19.8116C37.0156 19.7943 37.0243 19.7857 37.0243 19.6047C37.0243 18.5443 37.0243 17.484 37.0243 16.4237C37.0243 16.0271 37.0156 15.6219 37.0329 15.2254C37.0501 14.8288 37.1277 14.4495 37.3001 14.0874C37.6191 13.415 38.1363 13.0099 38.895 12.9323C39.1881 12.9064 39.4725 12.9237 39.7656 12.9495C39.8691 12.9581 39.9208 12.9237 39.9294 12.8202C39.9467 12.6392 39.9812 12.4668 39.9984 12.2857C40.0329 11.915 40.0156 11.5443 39.9639 11.1737C39.9553 11.0875 39.9381 11.0185 39.826 11.0012C39.395 10.9323 38.9639 10.9323 38.5329 11.0271C37.9294 11.1564 37.4467 11.484 37.0501 11.9495C36.9898 12.0185 36.9467 12.0961 36.8518 12.1478C36.7915 11.8288 36.7225 11.5357 36.645 11.2426ZM13.1622 13.303C13.1622 13.2512 13.1622 13.1909 13.1622 13.1392C13.145 12.915 12.9812 12.8116 12.7743 12.8892C12.7225 12.9064 12.6794 12.9409 12.6277 12.9668C12.1708 13.2254 11.7225 13.4926 11.2656 13.7426C11.1363 13.8116 11.0932 13.8978 11.0932 14.0443C11.1019 15.9064 11.0932 17.7771 11.0932 19.6392C11.0932 19.6823 11.0932 19.7254 11.0932 19.7599C11.0932 19.8288 11.1105 19.8633 11.1881 19.8633C11.7484 19.8633 12.3001 19.8633 12.8605 19.8633C13.0329 19.8633 13.1363 19.7512 13.1622 19.5788C13.1708 19.5185 13.1622 19.4581 13.1622 19.3892C13.1622 18.3719 13.1622 17.3547 13.1622 16.3375C13.1622 15.3288 13.1622 14.3202 13.1622 13.303ZM10.4812 14.1995C10.0846 14.4237 9.69668 14.6478 9.30013 14.8806C9.15358 14.9668 9.10185 15.0961 9.10185 15.2599C9.10185 16.7081 9.10185 18.1478 9.10185 19.5961C9.10185 19.8116 9.15358 19.8633 9.3691 19.8633C9.69668 19.8633 10.0156 19.8633 10.3432 19.8633C10.5415 19.8633 10.5415 19.8633 10.5415 19.665C10.5415 19.6478 10.5415 19.6392 10.5415 19.6219C10.5415 17.8806 10.5415 16.1392 10.5415 14.3978C10.5415 14.3288 10.5501 14.2599 10.5329 14.1995C10.4984 14.1995 10.4898 14.1995 10.4812 14.1995ZM33.1622 15.6478C33.1363 16.234 33.0243 16.7943 32.7915 17.3288C32.2656 18.5702 31.3174 19.3461 30.0415 19.7254C29.4725 19.8978 28.8863 19.9668 28.2915 19.9668C27.4036 19.9668 26.5156 19.8719 25.6536 19.6478C25.507 19.6133 25.3605 19.5616 25.2225 19.5185C25.1363 19.4926 25.0932 19.4495 25.1019 19.3547C25.1105 19.3116 25.1019 19.2685 25.1019 19.234C25.1019 15.8375 25.1019 12.4409 25.1019 9.04434C25.1019 8.99262 25.1019 8.94952 25.1019 8.89779C25.1019 8.53573 25.2484 8.25124 25.5415 8.0271C26.1105 7.58745 26.7398 7.26848 27.4036 7.00986C27.4294 7.00124 27.4553 7.00124 27.4984 7.00124C27.4984 8.40641 27.4984 9.80297 27.4984 11.1909C27.5587 11.234 27.6019 11.1995 27.645 11.1823C28.3605 10.9064 29.1018 10.8374 29.8605 10.915C30.2915 10.9581 30.7139 11.053 31.1105 11.2426C31.9898 11.6478 32.5501 12.3288 32.8605 13.2254C33.1277 14.0099 33.1967 14.8202 33.1622 15.6478ZM30.6881 14.8461C30.6536 14.4495 30.576 14.053 30.3777 13.6995C30.1536 13.2857 29.8087 13.0099 29.3432 12.915C28.7829 12.803 28.2312 12.8633 27.6967 13.0443C27.4898 13.1133 27.4898 13.1219 27.4898 13.3375C27.4898 14.0702 27.4898 14.7943 27.4898 15.5271C27.4898 16.2599 27.4898 16.984 27.4898 17.7168C27.4898 17.9323 27.4898 17.9409 27.7053 17.9754C27.9467 18.0099 28.1967 18.0271 28.4467 18.0185C29.5329 17.984 30.2398 17.4323 30.5501 16.3978C30.6967 15.8892 30.7312 15.3719 30.6881 14.8461ZM56.7398 7.20814C56.7398 11.2081 56.7398 15.2081 56.7398 19.2081C56.7398 19.2254 56.7398 19.234 56.7398 19.2512C56.7398 19.4409 56.7656 19.415 56.576 19.4754C56.2656 19.5788 55.9553 19.6564 55.6363 19.7168C54.7915 19.8892 53.9294 19.9754 53.0674 19.9581C52.4467 19.9495 51.8346 19.8633 51.2484 19.6478C50.1708 19.2512 49.4036 18.5271 49.007 17.4495C48.4984 16.0443 48.507 14.6392 49.1105 13.2685C49.6794 11.9668 50.7225 11.2254 52.1105 10.9668C52.8346 10.8288 53.5587 10.8374 54.2829 10.9926C54.2915 10.9926 54.3087 10.9926 54.326 10.984C54.3605 10.9237 54.3432 10.8547 54.3432 10.7857C54.3432 10.1737 54.3518 9.56159 54.3432 8.94952C54.3346 8.54434 54.4898 8.234 54.8087 7.99262C55.3863 7.56159 56.0156 7.234 56.7053 6.97538C56.757 7.07021 56.7398 7.14779 56.7398 7.20814ZM54.3518 15.3892C54.3518 14.6306 54.3518 13.8719 54.3518 13.1219C54.3518 12.9237 54.3518 12.9237 54.1622 12.8806C53.8346 12.8116 53.4984 12.7771 53.1536 12.7943C52.1622 12.8461 51.5243 13.3461 51.2743 14.2943C51.1363 14.8202 51.1105 15.3547 51.1536 15.8892C51.1794 16.2254 51.2484 16.553 51.3863 16.8719C51.6363 17.4495 52.0674 17.8116 52.6794 17.9495C53.1794 18.0616 53.6794 18.0443 54.1708 17.9323C54.3518 17.8892 54.3518 17.8892 54.3518 17.6995C54.3518 16.9323 54.3518 16.1564 54.3518 15.3892ZM89.7398 15.3978C89.7398 16.165 89.6449 16.8806 89.3605 17.5702C88.8174 18.8978 87.8174 19.6564 86.4122 19.8978C85.6708 20.0185 84.938 20.0012 84.2225 19.7943C82.8863 19.415 82.0415 18.5271 81.6191 17.2254C81.3518 16.3978 81.3174 15.553 81.3949 14.6909C81.4553 14.0788 81.6018 13.484 81.8863 12.9323C82.4467 11.8202 83.3518 11.165 84.5587 10.9323C85.3518 10.7771 86.1363 10.803 86.9122 11.0271C88.1794 11.3892 88.9984 12.234 89.4294 13.4668C89.6622 14.0961 89.7398 14.7599 89.7398 15.3978ZM87.2398 14.5616C87.1967 14.234 87.1191 13.915 86.9725 13.6133C86.757 13.1823 86.4208 12.9064 85.938 12.8116C85.7484 12.7771 85.5587 12.7685 85.3605 12.7857C84.8777 12.8202 84.4984 13.0357 84.2312 13.4495C84.0846 13.6737 83.9898 13.9323 83.9294 14.1909C83.7743 14.8978 83.7743 15.6133 83.8605 16.3288C83.8949 16.6219 83.9725 16.9064 84.1018 17.1823C84.2743 17.5443 84.5329 17.8202 84.9208 17.9495C85.3518 18.0961 85.7915 18.0875 86.2139 17.9323C86.6622 17.7685 86.9122 17.415 87.0674 16.984C87.2484 16.484 87.2829 15.9668 87.2829 15.3547C87.3001 15.1392 87.2743 14.8461 87.2398 14.5616ZM65.9553 15.1909C65.9467 15.4237 65.9467 15.6564 65.9122 15.8892C65.8777 16.1219 65.8777 16.1219 65.6536 16.1219C63.9984 16.1219 62.3432 16.1219 60.6967 16.1219C60.6191 16.1219 60.5415 16.1047 60.4553 16.1392C60.5415 17.0961 61.1622 17.7771 62.1105 17.9495C62.7312 18.0616 63.3432 18.0271 63.9639 17.9323C64.4294 17.8633 64.8777 17.7512 65.3432 17.6219C65.4208 17.803 65.4294 17.984 65.4467 18.165C65.4812 18.553 65.4639 18.9495 65.3863 19.3374C65.3691 19.4409 65.326 19.4926 65.2312 19.5271C64.8518 19.6823 64.4467 19.7857 64.0415 19.8547C63.3518 19.9668 62.6622 20.0099 61.9639 19.9409C61.3605 19.8806 60.7743 19.7426 60.2225 19.4668C59.326 19.0099 58.7053 18.303 58.3949 17.3547C57.9467 15.984 57.9725 14.6133 58.4898 13.2685C58.9984 11.9495 59.9812 11.1737 61.3777 10.9237C62.0587 10.803 62.7398 10.8116 63.4036 10.9926C64.6105 11.3202 65.3777 12.1133 65.757 13.2943C65.9294 13.9064 65.9725 14.5443 65.9553 15.1909ZM63.7398 14.3461C63.7225 13.9926 63.6622 13.6564 63.4898 13.3461C63.3691 13.1306 63.2053 12.9581 62.9812 12.8461C62.3863 12.5271 61.5243 12.6478 61.0329 13.1133C60.688 13.4495 60.5243 13.8719 60.4381 14.3461C61.5415 14.3461 62.6363 14.3461 63.7398 14.3461ZM47.4036 19.2426C47.4036 19.4926 47.4036 19.4495 47.2053 19.5099C46.076 19.8288 44.9294 20.0099 43.757 19.9668C43.1363 19.9495 42.5243 19.8719 41.9294 19.6564C40.8518 19.2599 40.2915 18.484 40.2053 17.3461C40.1794 17.0012 40.1881 16.6564 40.2743 16.3202C40.4208 15.7254 40.7743 15.2685 41.2915 14.9409C41.757 14.6478 42.2743 14.4926 42.8174 14.3978C43.5329 14.2771 44.2398 14.2943 44.9553 14.3633C44.9984 14.3633 45.0329 14.3806 45.076 14.3633C45.1622 13.8375 44.9294 13.2081 44.3432 12.9581C44.1018 12.8547 43.8432 12.7943 43.5846 12.7857C42.8087 12.7512 42.0415 12.803 41.2829 12.984C41.257 12.9926 41.2312 12.9926 41.2053 13.0012C41.1105 13.0357 41.0674 13.0012 41.0501 12.9064C40.9898 12.5271 40.9467 12.1392 40.9812 11.7599C40.9984 11.6047 41.0156 11.4495 41.0415 11.2857C41.0587 11.1823 41.1018 11.1306 41.2053 11.1047C42.326 10.8633 43.4467 10.7512 44.5846 10.9323C44.9467 10.9926 45.3001 11.0874 45.6277 11.2426C46.5329 11.6564 47.0587 12.3719 47.2743 13.3288C47.3518 13.6823 47.3863 14.0357 47.3863 14.3978C47.4036 16.0099 47.4036 17.6219 47.4036 19.2426ZM45.1018 17.8806C45.0932 17.5874 45.1018 17.303 45.1018 17.0099C45.1018 16.7081 45.1018 16.4064 45.1018 16.1047C45.1018 16.0185 45.076 15.984 44.9898 15.9754C44.5846 15.9495 44.1794 15.9064 43.7743 15.9409C43.4725 15.9668 43.1794 16.0099 42.895 16.1478C42.2312 16.4668 42.257 17.5185 42.8174 17.8374C42.9898 17.9323 43.1622 18.0012 43.3518 18.0357C43.895 18.1392 44.4381 18.0961 44.9725 18.0271C45.0674 18.0185 45.1018 17.9754 45.1018 17.8806Z" fill="#B8B8B8"/></svg>