<svg viewBox="0 0 89 20" fill="none" xmlns="http://www.w3.org/2000/svg"><path fill-rule="evenodd" clip-rule="evenodd" d="M27.1467 6.65389L24.8696 12.3466H28.0256L27.1467 6.65389ZM15.0821 19.6973L24.4302 0.421825H31.5211L35.4761 19.6973H29.2241L28.7647 17.1205H22.7323L21.3541 19.6973H15.0821ZM38.3724 19.6973L41.089 0.421825H47.361L44.6444 19.6973H38.3724ZM79.9994 6.61394L77.7023 12.3267H80.8583L79.9994 6.61394ZM67.8948 19.6973L77.2429 0.421825H84.3139L88.2688 19.6973H82.0568L81.5974 17.1205H75.565L74.1868 19.6973H67.8948Z" fill="#B8B8B8"/><path fill-rule="evenodd" clip-rule="evenodd" d="M54.0729 10.6895H61.9229L67.2961 19.5781H59.4461L54.0729 10.6895Z" fill="#B8B8B8"/><path fill-rule="evenodd" clip-rule="evenodd" d="M54.8945 9.33008H62.9842L70.0352 0.481355H61.9456L54.8945 9.33008Z" fill="#B8B8B8"/><path fill-rule="evenodd" clip-rule="evenodd" d="M46.7825 19.6387H54.8722L61.9232 10.6701H53.8336L46.7825 19.6387Z" fill="#B8B8B8"/><path fill-rule="evenodd" clip-rule="evenodd" d="M49.72 0.361513H57.2904L62.4838 9.33008H54.9134L49.72 0.361513Z" fill="#B8B8B8"/><path fill-rule="evenodd" clip-rule="evenodd" d="M15.263 1.14154L14.6638 6.81431C12.3468 3.63836 6.99358 5.83557 6.59409 9.79053C6.05477 14.8241 11.2082 16.0026 14.0047 13.0264L13.4054 18.7191C12.5665 19.1386 11.7475 19.4582 10.9485 19.6579C10.1496 19.8777 9.3306 19.9975 8.55159 19.9975C7.55286 20.0175 6.63404 19.9176 5.81509 19.6779C4.99613 19.4582 4.25706 19.0987 3.5979 18.5993C2.33951 17.6805 1.42068 16.502 0.861389 15.0638C0.302101 13.6256 0.102358 12.0077 0.302104 10.19C0.4619 8.73187 0.821442 7.41356 1.4007 6.19511C1.97997 4.99663 2.77895 3.89803 3.79765 2.89931C4.75643 1.9605 5.81508 1.24142 6.95363 0.762027C8.09218 0.282639 9.3306 0.0229725 10.6689 0.00299802C11.4679 -0.0169765 12.2469 0.0629124 13.0059 0.242683C13.745 0.462403 14.504 0.76202 15.263 1.14154Z" fill="#B8B8B8"/></svg>