<svg viewBox="0 0 20 20" fill="none" xmlns="http://www.w3.org/2000/svg"><path fill-rule="evenodd" clip-rule="evenodd" d="M9.20001 15.1323C9.20001 15.5989 9.46668 15.7989 9.93335 15.7989C10.2 15.7989 10.4 15.7322 10.6 15.5989C10.8 15.4656 10.9333 15.3323 11 15.1323V14.8656V14.3323C9.80001 14.2656 9.20001 14.5323 9.20001 15.1323Z" fill="#B8B8B8"/><path fill-rule="evenodd" clip-rule="evenodd" d="M19 1C18.3333 0.333333 17.6 0 16.6667 0H3.33333C2.4 0 1.6 0.333333 1 1C0.333333 1.6 0 2.4 0 3.33333V16.6667C0 17.6 0.333333 18.4 1 19C1.66667 19.6667 2.46667 20 3.33333 20H16.6667C17.6 20 18.4 19.6667 19 19C19.6667 18.3333 20 17.5333 20 16.6667V3.33333C20 2.4 19.6667 1.6 19 1ZM3.2 16.6667H1.66667V10H3.26667L3.2 16.6667ZM16.2 10H17.6667L16.3333 11.3333H15.2667L16.2 10ZM6.26667 16.8C5.73333 16.8 5.33333 16.6667 5.06667 16.3333C4.8 16 4.66667 15.5333 4.66667 14.8667V12.8667H3.93333V11.7333H4.66667V10H6.2V11.6667H7.13333V12.8H6.13333V14.6C6.13333 14.9333 6.2 15.1333 6.26667 15.2666C6.4 15.4666 6.53333 15.5333 6.8 15.5333C6.93333 15.5333 7.06667 15.5333 7.06667 15.4667V16.6667C6.86667 16.7333 6.6 16.8 6.26667 16.8ZM12.4667 16.6667H11.0667V16.1333H11C10.6667 16.5333 10.1333 16.8 9.46667 16.8C8.93333 16.8 8.53333 16.6667 8.2 16.3333C7.93333 16.0667 7.73333 15.6666 7.73333 15.2666C7.73333 14.6 8 14.1333 8.6 13.8C9.13333 13.4667 9.93333 13.3333 10.9333 13.3333V13.2666C10.9333 12.8 10.6 12.6 9.93333 12.6C9.4 12.6 8.86667 12.7333 8.46667 13L8.13333 12C8.66667 11.6667 9.33333 11.5333 10.1333 11.5333C10.9333 11.5333 11.5333 11.7333 11.9333 12.2C12.2667 12.6 12.4667 13.0667 12.4667 13.7333V16.6667ZM18.3333 16.6667H16.9333V15.8667C16.6 16.4667 16 16.8 15.2 16.8C14.6667 16.8 14.2 16.6667 13.8667 16.3333C13.5333 15.9333 13.3333 15.3333 13.3333 14.6V11.7333H14.8667V14.3333C14.8667 15.1333 15.2 15.6 15.8 15.6C16.2667 15.6 16.6 15.4 16.7333 14.9333C16.7333 14.8666 16.8 14.7333 16.8 14.6V11.6667H18.3333V16.6667Z" fill="#B8B8B8"/></svg>