<svg viewBox="0 0 56 20" fill="none" xmlns="http://www.w3.org/2000/svg"><path d="M0.940907 9.7639V9.70508C1.05855 9.29331 1.29384 8.88155 1.64678 8.52861C2.29384 7.88155 2.94091 7.2345 3.58797 6.58744C3.64679 6.52861 3.70561 6.46978 3.76443 6.46978C4.29384 6.46978 4.82326 6.41096 5.29385 6.52861C5.70561 6.58743 6.05854 6.7639 6.35266 7.05802C7.23501 7.94037 8.11737 8.82272 8.99972 9.70508C9.58796 10.2933 10.5291 10.2933 11.0585 9.70508C11.8821 8.88155 12.7644 8.05803 13.588 7.17567C13.9997 6.70508 14.5291 6.58743 15.1762 6.52861C15.8821 6.46979 16.3527 6.64626 16.8233 7.17567C17.1762 7.58744 17.5291 7.9992 17.9409 8.35214C19.2938 9.46979 19.4115 11.2933 18.235 12.5286C17.588 13.1757 16.9409 13.8227 16.2938 14.4698C16.235 14.5286 16.1174 14.5874 15.9997 14.5874C15.6468 14.5874 15.2938 14.5874 14.9409 14.5874C14.4703 14.5874 14.0585 14.3521 13.7056 13.9992C12.8232 13.1168 11.9997 12.2933 11.1174 11.411C10.5291 10.8815 9.64679 10.8815 9.11737 11.411C8.23502 12.2933 7.4115 13.1168 6.52914 13.9992C6.11738 14.411 5.58796 14.6463 4.99973 14.6463C4.70561 14.6463 4.41149 14.6463 4.11737 14.6463C3.88208 14.6463 3.70561 14.5874 3.58797 14.411C3.05855 13.8227 2.4703 13.2933 1.88207 12.7051C1.4703 12.2933 1.17619 11.8816 0.999716 11.2933C0.999716 11.2345 0.999731 11.1757 0.940907 11.1757C0.940907 10.8815 0.88208 10.5286 0.88208 10.1757C0.88208 9.94036 0.882084 9.88155 0.940907 9.7639Z" fill="#B8B8B8"/><path d="M9.41149 19.529C9.41149 19.4701 9.35266 19.4701 9.29383 19.4701C8.7056 19.3525 8.17618 18.9407 7.76442 18.5289C6.76442 17.5289 5.76443 16.5289 4.76443 15.5289C4.70561 15.4701 4.58795 15.4113 4.58795 15.2937C4.82325 15.2937 5.11737 15.2936 5.35267 15.2348C5.99973 15.176 6.52913 14.8819 6.94089 14.4701C7.82325 13.5878 8.7056 12.7642 9.52912 11.8819C9.88207 11.529 10.1174 11.529 10.4703 11.8819C11.2938 12.7054 12.1174 13.5289 12.9409 14.3525C13.5291 14.9407 14.235 15.2937 15.0585 15.2937C15.1174 15.2937 15.1762 15.2937 15.235 15.2937C15.235 15.4113 15.1174 15.4701 15.0585 15.5289C14.0585 16.5289 12.9997 17.5878 11.9997 18.5878C11.588 18.9995 11.1174 19.2937 10.588 19.4701C10.5291 19.4701 10.4703 19.4701 10.4703 19.529C10.1174 19.529 9.76443 19.529 9.41149 19.529Z" fill="#B8B8B8"/><path d="M4.58795 5.58686C4.58795 5.46922 4.70561 5.46922 4.76443 5.4104C5.82326 4.35158 6.88208 3.29274 7.9409 2.23392C9.11737 1.05744 10.8232 1.05744 11.9997 2.23392C13.0585 3.29274 14.1174 4.35158 15.1762 5.4104C15.235 5.46922 15.2938 5.52804 15.3527 5.64569C15.1174 5.64569 14.8821 5.70452 14.588 5.70452C14.0585 5.82217 13.588 6.05745 13.1762 6.46922C12.2938 7.35157 11.4115 8.1751 10.588 9.05745C10.235 9.41039 9.99972 9.41039 9.64678 9.05745C8.82325 8.23392 7.99972 7.46921 7.23501 6.64568C6.58795 5.9398 5.82325 5.58687 4.88207 5.64569C4.7056 5.64569 4.64678 5.64569 4.58795 5.58686C4.58795 5.64569 4.58795 5.64569 4.58795 5.58686Z" fill="#B8B8B8"/><path d="M23.1762 12.4706C23.1762 10.7059 23.1762 8.88235 23.1762 7.11765C23.1762 4.76471 24.9997 3 27.2939 3C28.3527 3 29.4703 3 30.5292 3C32.6468 3 34.4115 4.58823 34.588 6.70587C34.6468 7.88235 34.7056 9.05882 34.5291 10.2353C34.235 11.8823 32.7644 13.2353 31.0586 13.4706C30.4703 13.5294 29.8821 13.5294 29.2939 13.5294C28.235 13.5294 27.1174 13.5294 26.0586 13.5294C25.9997 13.5294 25.9409 13.5294 25.8233 13.5294C25.6468 13.4706 25.5292 13.4118 25.5292 13.1765C25.5292 13 25.6468 12.8823 25.8233 12.8235C25.8821 12.8235 25.9997 12.8235 26.0586 12.8235C27.5291 12.8235 28.9997 12.8235 30.4703 12.8235C32.4115 12.8235 33.9409 11.3529 33.9409 9.35293C33.9409 8.58823 33.9409 7.82353 33.9409 7.05882C33.9409 5.11764 32.4703 3.64706 30.5292 3.64706C29.4703 3.64706 28.4115 3.64706 27.3527 3.64706C25.4703 3.58824 23.8233 5.17647 23.8821 7.11765C23.9409 10.7059 23.8821 14.2941 23.8821 17.9412C23.8821 18 23.8821 18.0588 23.8821 18.1176C23.8821 18.4118 23.7644 18.5294 23.5292 18.5294C23.2939 18.5294 23.1762 18.4118 23.1762 18.1176C23.1762 16.2941 23.1762 14.3529 23.1762 12.4706Z" fill="#B8B8B8"/><path d="M41.8233 3.00009C42.6468 2.94127 43.4703 3.05892 44.1762 3.58833C44.3527 3.70598 44.5291 3.88244 44.7056 4.00008C45.7644 5.05891 46.7644 6.05892 47.8232 7.11774C48.2938 7.58833 48.6468 7.58833 49.1174 7.11774C50.1762 6.05892 51.235 5.05891 52.235 4.00008C52.8821 3.35302 53.6468 3.0001 54.588 3.05892C54.9409 3.05892 55.235 3.05892 55.588 3.05892C55.8821 3.05892 55.9997 3.17655 55.9997 3.41185C55.9997 3.58832 55.8233 3.76479 55.588 3.76479C55.0586 3.76479 54.588 3.70597 54.0585 3.82362C53.588 3.88244 53.1762 4.11774 52.8232 4.47068C51.7644 5.52951 50.7056 6.58833 49.6468 7.64715C48.9409 8.35303 48.1174 8.35303 47.3527 7.64715C46.2938 6.58833 45.235 5.58833 44.235 4.52951C43.7056 4.0001 43.1174 3.70597 42.3527 3.76479C41.9409 3.76479 41.5291 3.76479 41.1174 3.76479C40.8233 3.76479 40.6468 3.64714 40.6468 3.41185C40.6468 3.17655 40.8233 3.05892 41.1174 3.05892C41.2938 3.0001 41.5291 3.00009 41.8233 3.00009Z" fill="#B8B8B8"/><path d="M41.6467 12.8221C41.882 12.8221 42.1762 12.8221 42.4115 12.8221C43.1173 12.7633 43.6468 12.4692 44.1173 11.9986C45.1762 10.9398 46.1762 9.9398 47.235 8.88097C47.9409 8.17509 48.7644 8.17509 49.4703 8.88097C50.5291 9.9398 51.5879 10.9986 52.6468 12.0574C53.1762 12.5869 53.7644 12.881 54.5291 12.8221C54.8232 12.8221 55.1762 12.8221 55.4703 12.8221C55.7056 12.8221 55.882 12.9398 55.882 13.1751C55.882 13.4104 55.7056 13.528 55.4115 13.528C54.9409 13.528 54.4115 13.528 53.9409 13.528C53.1762 13.4692 52.5879 13.0574 52.0585 12.528C50.9997 11.4692 49.9997 10.4692 48.9409 9.41038C48.4703 8.93979 48.1173 8.93979 47.6468 9.41038C46.5879 10.4692 45.5291 11.4692 44.5291 12.528C43.882 13.1751 43.1173 13.528 42.1762 13.528C41.7644 13.528 41.2938 13.528 40.882 13.528C40.6468 13.528 40.4703 13.4104 40.4703 13.1751C40.4703 12.9986 40.6468 12.8221 40.882 12.8221C41.1762 12.8221 41.4115 12.8221 41.6467 12.8221Z" fill="#B8B8B8"/><path d="M38.5291 8.99999C38.5291 10.3529 38.5291 11.7059 38.5291 13.0588C38.5291 13.1177 38.5291 13.2353 38.5291 13.2941C38.4703 13.4706 38.3527 13.5882 38.1762 13.5882C37.9997 13.5882 37.8821 13.4706 37.8232 13.2941C37.8232 13.2353 37.8232 13.1176 37.8232 13C37.8232 10.3529 37.8232 7.64706 37.8232 5C37.8232 4.17647 37.3527 3.70587 36.5291 3.70587C36.1174 3.70587 35.7056 3.70587 35.2938 3.70587C34.9997 3.70587 34.8232 3.58824 34.8232 3.35294C34.8232 3.11765 34.9997 3 35.235 3C35.7056 3 36.1174 3 36.5879 3C37.6468 3 38.4703 3.82352 38.4703 4.88234C38.5291 6.23528 38.5291 7.64705 38.5291 8.99999Z" fill="#B8B8B8"/><path d="M39.1762 1.05809C39.1762 1.23456 39.1174 1.29339 39.0585 1.41104C38.8232 1.64633 38.6468 1.82281 38.4115 2.0581C38.235 2.23457 37.9997 2.23457 37.7644 2.0581C37.5291 1.88163 37.3526 1.64634 37.1762 1.46987C36.9997 1.2934 36.9997 1.0581 37.1762 0.881631C37.3526 0.646337 37.5879 0.469862 37.8232 0.234568C37.9997 0.0580978 38.1762 0.0580942 38.3526 0.175741C38.5879 0.411035 38.8232 0.64634 39.1174 0.940458C39.1762 0.940458 39.1762 0.99927 39.1762 1.05809Z" fill="#B8B8B8"/></svg>