<svg viewBox="0 0 115 20" fill="none" xmlns="http://www.w3.org/2000/svg"><path d="M15.2 9.19999C15.1333 8.46666 14.9333 7.73334 14.6 7.13334L11.3333 1.39998C11.0667 0.933317 10.8667 0.466667 10.8 0L10.6667 0.266642C9.86667 1.66664 9.86667 3.46666 10.6667 4.86666L13.3333 9.46667C14.1333 10.8667 14.1333 12.6667 13.3333 14.0667L13.2 14.3333C13.1333 13.8667 12.9333 13.4 12.6667 12.9333L10.2667 8.73332L8.73333 6.06665C8.46667 5.59998 8.26667 5.13333 8.2 4.66667L8.06667 4.93331C7.26667 6.33331 7.26667 8.06666 8.06667 9.53333L10.7333 14.1333C11.5333 15.5333 11.5333 17.3333 10.7333 18.7333L10.6 19C10.5333 18.5333 10.3333 18.0666 10.0667 17.6L6.73333 11.8667C6.2 10.8667 6 10 6 9.13334C2.46667 10 0 12 0 14.2666C0 17.4666 4.73333 20 10.5333 20C16.3333 20 21.0667 17.4666 21.0667 14.2666C21.1333 12.0666 18.7333 10.1333 15.2 9.19999ZM25.1333 19C25.2 18.2 25.2667 17.6667 25.5333 17C26.6667 17.5333 28.0667 17.8 29.1333 17.8C30.9333 17.8 32 17.2 32 16C32 14.8667 31.2 14.3333 29.4 13.4667L28.4 13.0667C26.5333 12.2667 25.2667 11.2 25.2667 9.13334C25.2667 6.86667 26.8667 5.39998 30.0667 5.39998C31.4 5.39998 32.6 5.6 33.6667 6C33.6 6.8 33.4667 7.4 33.2667 8C32.2 7.6 30.9333 7.39998 30 7.39998C28.2667 7.39998 27.4667 8.06668 27.4667 9.13334C27.4667 10.1333 28.2667 10.8 29.6667 11.3333L30.7333 11.8C33.2667 12.8667 34.2667 14 34.2667 15.9333C34.2667 18.2 32.5333 19.8 29.1333 19.8C27.6 19.7333 26.2667 19.5333 25.1333 19ZM44.9333 9.46667V19.4H42.9333L42.8667 18.2C42.2667 19.0667 41.4667 19.6667 40.0667 19.6667C37.4667 19.6667 35.6667 17.7333 35.6667 14.4C35.6667 10.9333 37.5333 8.93331 41.2 8.93331C42.6667 8.93331 43.8667 9.13334 44.9333 9.46667ZM42.8 17.1333V10.9333C42.3333 10.8666 41.8667 10.8667 41.2 10.8667C38.9333 10.8667 37.8667 12.2667 37.8667 14.4667C37.8667 16.4667 38.6667 17.9333 40.6 17.9333C41.5333 17.8666 42.2 17.6 42.8 17.1333ZM56.1333 12.8V19.4667H54V13.2C54 11.6 53.4667 10.8667 51.3333 10.8667C50.8 10.8667 50.2 10.9333 49.6 11V19.4667H47.4V9.46667C48.8 9.13334 50.3333 8.86666 51.3333 8.86666C55 8.93333 56.1333 10.3333 56.1333 12.8ZM62.2 17.8C62.8 17.8 63.4667 17.7333 63.8667 17.5333C63.8 18.1333 63.7333 18.8 63.6 19.3333C63 19.6 62.3333 19.6667 61.8 19.6667C59.6667 19.6667 58.3333 18.7333 58.3333 16.2666V5.86666C59 5.59999 59.8 5.53333 60.5333 5.53333V9.33333H64C63.9333 10 63.9333 10.6667 63.8 11.2H60.5333V16.0667C60.5333 17.3333 61.1333 17.8 62.2 17.8ZM73.9333 9.46667V19.4H71.9333L71.8667 18.2C71.2667 19.0667 70.4667 19.6667 69.0667 19.6667C66.4667 19.6667 64.6667 17.7333 64.6667 14.4C64.6667 10.9333 66.5333 8.93331 70.2 8.93331C71.6 8.93331 72.8 9.13334 73.9333 9.46667ZM71.7333 17.1333V10.9333C71.2667 10.8666 70.8 10.8667 70.1333 10.8667C67.8667 10.8667 66.8 12.2667 66.8 14.4667C66.8 16.4667 67.6 17.9333 69.5333 17.9333C70.4667 17.8666 71.2 17.6 71.7333 17.1333ZM85.1333 12.8V19.4667H82.9333V13.2C82.9333 11.6 82.4 10.8667 80.2667 10.8667C79.7333 10.8667 79.1333 10.9333 78.5333 11V19.4667H76.3333V9.46667C77.7333 9.13334 79.2667 8.86666 80.2667 8.86666C83.9333 8.93333 85.1333 10.3333 85.1333 12.8ZM96.1333 5.53333V19.4H94.1333L94.0667 18.1333C93.4667 19.0667 92.6667 19.6 91.2 19.6C88.6 19.6 86.8 17.6667 86.8 14.3333C86.8 10.8667 88.6667 8.86666 92.3333 8.86666C92.9333 8.86666 93.4667 8.93333 94 9V5.80001C94.6667 5.60001 95.4 5.53333 96.1333 5.53333ZM94 17.1333V11C93.4 10.9333 92.8667 10.8 92.2667 10.8C90.0667 10.8 89.0667 12.1333 89.0667 14.4C89.0667 16.4 89.8667 17.8667 91.8 17.8667C92.6667 17.8667 93.4 17.6 94 17.1333ZM107.133 15.2H100.133C100.4 17 101.467 17.8 103.4 17.8C104.6 17.8 105.8 17.5333 106.867 17C106.8 17.6 106.667 18.3333 106.533 19C105.533 19.4667 104.533 19.6 103.333 19.6C99.6667 19.6 97.9333 17.6 97.9333 14.2C97.9333 11.2667 99.2667 8.86666 102.733 8.86666C105.867 8.86666 107.2 10.8667 107.2 13.4C107.2 14.1333 107.2 14.6 107.133 15.2ZM100.133 13.3333H105.067C105.067 11.6667 104.2 10.7333 102.733 10.7333C101.133 10.8 100.267 11.6667 100.133 13.3333ZM114.8 9.06665C114.8 9.73332 114.733 10.5333 114.6 10.9333C114.067 10.8666 113.6 10.8667 112.933 10.8667C112.4 10.8667 111.867 10.9333 111.333 10.9333V19.4H109.133V9.46667C110.067 9.13334 111.667 8.86666 112.867 8.86666C113.533 8.93333 114.333 8.93332 114.8 9.06665Z" fill="#B8B8B8"/></svg>