<svg width="20" height="20" viewBox="0 0 20 20" fill="none" xmlns="http://www.w3.org/2000/svg"><path fill-rule="evenodd" clip-rule="evenodd" d="M5.03 4.484A2.81 2.81 0 0 1 10 2.688a2.81 2.81 0 0 1 4.53 3.308h.657a2.377 2.377 0 0 1 2.377 2.378v1.728a1.51 1.51 0 0 1-1.107 1.459 19 19 0 0 1-.216 4.73 2.13 2.13 0 0 1-1.859 1.754l-.79.088a32.3 32.3 0 0 1-7.183 0l-.79-.088a2.126 2.126 0 0 1-1.859-1.753 19 19 0 0 1-.216-4.731 1.51 1.51 0 0 1-1.107-1.459V8.375a2.377 2.377 0 0 1 2.377-2.378h.657a2.8 2.8 0 0 1-.441-1.512m4.322 0a1.513 1.513 0 1 0-3.026 0 1.513 1.513 0 0 0 3.026 0m2.81 1.512a1.512 1.512 0 1 0 0-3.024 1.512 1.512 0 0 0 0 3.024m-8.43 2.377c0-.597.484-1.08 1.08-1.08h4.539v3.025H3.949a.216.216 0 0 1-.216-.217zm6.916 3.241h4.511a17.8 17.8 0 0 1-.197 4.457.83.83 0 0 1-.725.684l-.79.09q-1.396.155-2.8.184zm0-1.296h5.402a.216.216 0 0 0 .216-.217V8.375a1.08 1.08 0 0 0-1.08-1.08h-4.538zm-1.297 1.296v5.415q-1.404-.03-2.799-.185l-.79-.089a.83.83 0 0 1-.725-.683 17.8 17.8 0 0 1-.197-4.458z" fill="currentColor"/></svg>
