<svg width="24" height="24" viewBox="0 0 24 24" fill="none" xmlns="http://www.w3.org/2000/svg"><path d="M3.5 11c0-2.828 0-4.243.879-5.121C5.257 5 6.672 5 9.5 5h2c2.828 0 4.243 0 5.121.879.879.878.879 2.293.879 5.121v5c0 2.828 0 4.243-.879 5.121C15.743 22 14.328 22 11.5 22h-2c-2.828 0-4.243 0-5.121-.879C3.5 20.243 3.5 18.828 3.5 16z" stroke="currentColor" stroke-width="1.5" stroke-linecap="round" stroke-linejoin="round"/><path d="m8.544 11.762.383-.457C9.657 10.435 10.021 10 10.5 10c.48 0 .844.435 1.573 1.305l.383.457c.696.831 1.044 1.247 1.044 1.738s-.348.907-1.044 1.738l-.383.457c-.73.87-1.094 1.305-1.573 1.305-.48 0-.844-.435-1.573-1.305l-.383-.457C7.848 14.407 7.5 13.991 7.5 13.5s.348-.907 1.044-1.738" stroke="currentColor" stroke-width="1.5" stroke-linecap="round" stroke-linejoin="round"/><path d="M17.424 19c1.096-.613 1.469-1.96 2.214-4.653l1.054-3.81c.746-2.693 1.119-4.04.486-5.101s-2.024-1.422-4.806-2.144l-1.967-.51c-2.782-.722-4.173-1.083-5.269-.47-.78.436-1.193 1.244-1.636 2.646" stroke="currentColor" stroke-width="1.5" stroke-linecap="round" stroke-linejoin="round"/></svg>
