<svg width="24" height="24" viewBox="0 0 24 24" fill="none" xmlns="http://www.w3.org/2000/svg"><path d="M12 1.68c.106 0 .211.024.307.072.188.094 2.508 1.273 4.78 3.214 2.274 1.943 4.487 4.64 4.487 7.77a5.13 5.13 0 0 1-6.792 4.854l-.102-.035.03.103.91 3.028a.685.685 0 0 1-.657.882H9.037a.7.7 0 0 1-.498-.215l-.052-.061a.69.69 0 0 1-.106-.606l.908-3.028.031-.103-.102.035a5.13 5.13 0 0 1-6.792-4.855c0-3.13 2.213-5.826 4.487-7.77 2.272-1.94 4.592-3.119 4.78-3.213A.7.7 0 0 1 12 1.68Zm-.026 1.474a26 26 0 0 0-3.53 2.337l-.471.381c-.95.794-1.994 1.81-2.8 2.978-.806 1.166-1.377 2.487-1.377 3.885a3.759 3.759 0 0 0 6.23 2.833.685.685 0 0 1 1.13.606l-.023.108-1.154 3.845-.021.071h4.084l-.021-.071-1.154-3.845-.023-.108a.685.685 0 0 1 1.13-.606 3.76 3.76 0 0 0 6.23-2.833c0-1.547-.732-3.985-4.177-6.863a26 26 0 0 0-4-2.718L12 3.14z" fill="currentColor" stroke="currentColor" stroke-width=".111"/></svg>
