<svg width="24" height="24" viewBox="0 0 24 24" fill="none" xmlns="http://www.w3.org/2000/svg"><path d="M8.868 14.737h6.263m-6.263-4.473H12m1.941 10.19c3.744-.247 6.725-3.272 6.97-7.068.048-.743.048-1.512 0-2.255-.245-3.795-3.226-6.817-6.97-7.067a29.5 29.5 0 0 0-3.883 0c-3.743.249-6.725 3.272-6.97 7.068q-.07 1.127 0 2.255c.09 1.382.7 2.663 1.421 3.744.418.756.142 1.7-.293 2.525-.314.595-.471.892-.345 1.107.125.215.407.222.97.235 1.114.027 1.865-.288 2.46-.727.338-.25.507-.374.623-.388.117-.015.347.08.805.268.411.17.89.275 1.328.304 1.275.084 2.608.084 3.885 0" stroke="currentColor" stroke-width="1.5" stroke-linecap="round" stroke-linejoin="round"/></svg>
