<svg width="24" height="24" viewBox="0 0 24 24" fill="none" xmlns="http://www.w3.org/2000/svg">
<path d="M12 21C16.9705 21 20.9999 16.9706 20.9999 12C20.9999 7.02944 16.9705 3 12 3C7.02942 3 3 7.02944 3 12C3 16.9706 7.02942 21 12 21Z" stroke="currentColor" stroke-width="1.5"/>
<path d="M6.60004 5.4388C7.30203 6.0787 8.74923 7.8265 8.91753 9.7021C9.07503 11.4562 10.2315 12.8818 12 12.8998C12.6795 12.907 13.3662 12.4165 13.3644 11.737C13.3644 11.5273 13.3293 11.3122 13.2753 11.1142C13.1844 10.8108 13.2111 10.4844 13.35 10.1998C13.899 9.0685 14.979 8.7643 15.834 8.1496C16.2129 7.8769 16.5594 7.5889 16.7115 7.3576C17.1336 6.7186 17.5548 5.4397 17.3442 4.7998M21 12.8998C20.703 13.7377 20.4942 15.9373 17.1462 15.9724C17.1462 15.9724 14.1825 15.9724 13.2933 17.6482C12.5814 18.9892 12.9963 20.4409 13.2933 20.9998" stroke="currentColor" stroke-width="1.5"/>
</svg>
