<svg width="25" height="24" viewBox="0 0 25 24" fill="none" xmlns="http://www.w3.org/2000/svg"><path fill-rule="evenodd" clip-rule="evenodd" d="m3.925 11.28.369-.245c.552-.365.918-.608 1.176-.825.246-.205.339-.343.387-.471.049-.129.07-.293.024-.61-.05-.336-.163-.759-.334-1.4l-.156-.581a8.56 8.56 0 0 0-1.466 4.13m2.558-5.432.023.068.399 1.49c.158.594.293 1.096.355 1.518.033.217.05.428.04.639l2.325.98a2 2 0 0 1 .167-.15l1.71-1.305q.138-.106.29-.177V6.388a3.3 3.3 0 0 1-.565-.264c-.37-.213-.788-.521-1.281-.886l-1.282-.945a8.7 8.7 0 0 0-2.18 1.554M10.21 3.7l.532.393c.533.393.886.653 1.18.821.277.16.437.2.574.201s.298-.035.579-.189c.296-.161.655-.414 1.196-.795l.579-.407a8.6 8.6 0 0 0-2.361-.33 8.6 8.6 0 0 0-2.28.306m6.182.631a1 1 0 0 1-.088.075l-1.26.887c-.502.353-.925.653-1.3.858-.182.1-.368.186-.557.248v2.509q.15.072.289.178l1.709 1.306q.092.07.17.151l2.382-.986a3.3 3.3 0 0 1 .04-.635c.063-.423.198-.924.356-1.516l.399-1.49.007-.028a8.7 8.7 0 0 0-2.147-1.557m3.238 2.88-.14.517c-.17.641-.283 1.065-.333 1.4-.047.316-.025.481.023.61.049.128.142.266.387.471.259.217.623.46 1.177.825l.305.202a8.56 8.56 0 0 0-1.42-4.026m2.841 5.162q.007-.186.007-.374c0-5.522-4.472-10-9.99-10S2.5 6.478 2.5 12s4.472 10 9.99 10c5.233 0 9.524-4.028 9.954-9.153a.7.7 0 0 0 .028-.473m-1.436.527-1.094-.724c-.512-.338-.945-.623-1.271-.899a3.4 3.4 0 0 1-.427-.42l-2.43 1.006a2 2 0 0 1-.063.302l-.67 2.173q-.036.115-.086.22l1.366 1.58c.209-.07.428-.112.654-.138.425-.048.944-.048 1.557-.048h1.552a8.6 8.6 0 0 0 .911-3.052m-1.815 4.447h-.61c-.663 0-1.101 0-1.436.039-.317.037-.471.1-.582.18s-.22.205-.355.496c-.142.307-.282.723-.491 1.352l-.21.632a8.6 8.6 0 0 0 3.683-2.7m-5.302 3.138.516-1.547c.194-.584.358-1.076.538-1.463q.12-.262.274-.49l-1.334-1.545a1.6 1.6 0 0 1-.387.047H11.45q-.186 0-.361-.04L9.905 16.96q.165.24.29.516c.181.387.345.88.54 1.463l.525 1.578a8.7 8.7 0 0 0 2.66-.031m-4.26-.359-.236-.711c-.21-.629-.35-1.046-.492-1.352-.135-.29-.244-.416-.355-.496s-.264-.144-.581-.18c-.335-.037-.774-.04-1.436-.04h-.804a8.6 8.6 0 0 0 3.902 2.78m-4.79-4.15a.8.8 0 0 1 .187-.024h1.54c.615 0 1.133 0 1.557.048.219.025.428.064.629.13l1.213-1.547a2 2 0 0 1-.098-.245l-.67-2.174q-.045-.15-.064-.305l-2.372-1a3.4 3.4 0 0 1-.424.419c-.327.274-.76.56-1.272.898l-1.15.76a8.6 8.6 0 0 0 .923 3.041m7.62-5.831a.23.23 0 0 0-.14.048l-1.707 1.305a.23.23 0 0 0-.081.254l.671 2.174a.23.23 0 0 0 .22.164h2.075a.23.23 0 0 0 .222-.164l.671-2.174a.23.23 0 0 0-.08-.254l-1.71-1.307a.23.23 0 0 0-.139-.046" fill="currentColor"/></svg>
