<svg width="20" height="20" viewBox="0 0 20 20" fill="none" xmlns="http://www.w3.org/2000/svg">
<path d="M10.0369 2C11.5442 2 12.7249 2 13.6619 2.10174C14.6187 2.20513 15.3932 2.4201 16.0554 2.90092C16.4558 3.19221 16.8078 3.54421 17.0991 3.94462C17.5799 4.60677 17.7949 5.38133 17.8983 6.33723C18 7.27508 18 8.45579 18 9.96308V10.0369C18 11.5442 18 12.7249 17.8983 13.6619C17.7949 14.6187 17.5799 15.3932 17.0991 16.0554C16.8078 16.4558 16.4558 16.8078 16.0554 17.0991C15.3932 17.5799 14.6187 17.7949 13.6619 17.8983C12.7249 18 11.5442 18 10.0369 18H9.96308C8.45579 18 7.27508 18 6.33723 17.8983C5.38133 17.7949 4.60677 17.5799 3.94462 17.0991C3.54421 16.8078 3.19221 16.4558 2.90092 16.0554C2.4201 15.3932 2.20513 14.6187 2.10174 13.6619C2 12.7249 2 11.5442 2 10.0369V9.96308C2 8.45579 2 7.27508 2.10174 6.33723C2.20513 5.38133 2.4201 4.60677 2.90092 3.94462C3.19221 3.54421 3.54421 3.19221 3.94462 2.90092C4.60677 2.4201 5.38133 2.20513 6.33723 2.10174C7.27508 2 8.45579 2 9.96308 2H10.0369ZM4.66831 3.89703C4.3721 4.112 4.112 4.3721 3.89703 4.66831C3.59426 5.08513 3.41703 5.61846 3.32513 6.47015C3.23159 7.33333 3.23077 8.44759 3.23077 10C3.23077 11.5524 3.23159 12.6667 3.32513 13.5298C3.41703 14.3815 3.59426 14.9149 3.89703 15.3317C4.112 15.6279 4.3721 15.888 4.66831 16.103C5.08513 16.4057 5.61846 16.5822 6.47015 16.6749C7.33333 16.7684 8.44759 16.7692 10 16.7692C11.5524 16.7692 12.6667 16.7684 13.5298 16.6749C14.3815 16.5822 14.9149 16.4057 15.3317 16.103C15.6279 15.888 15.888 15.6279 16.103 15.3317C16.4057 14.9149 16.5822 14.3815 16.6749 13.5298C16.7684 12.6667 16.7692 11.5524 16.7692 10C16.7692 8.44759 16.7684 7.33333 16.6749 6.47015C16.5822 5.61846 16.4057 5.08513 16.103 4.66831C15.888 4.3721 15.6279 4.112 15.3317 3.89703C14.9149 3.59426 14.3815 3.41703 13.5298 3.32513C12.6667 3.23159 11.5524 3.23077 10 3.23077C8.44759 3.23077 7.33333 3.23159 6.47015 3.32513C5.61846 3.41703 5.08513 3.59426 4.66831 3.89703ZM6.71795 5.48718C7.39733 5.48718 7.94872 6.03856 7.94872 6.71795V6.72615C7.94872 7.40554 7.39733 7.95692 6.71795 7.95692C6.03856 7.95692 5.48718 7.40554 5.48718 6.72615V6.71795C5.48718 6.03856 6.03856 5.48718 6.71795 5.48718ZM11.2308 10V10.0082C11.2308 10.6876 10.6794 11.239 10 11.239C9.32062 11.239 8.76923 10.6876 8.76923 10.0082V10C8.76923 9.32062 9.32062 8.76923 10 8.76923C10.6794 8.76923 11.2308 9.32062 11.2308 10ZM14.5128 13.2821V13.2903C14.5128 13.9696 13.9614 14.521 13.2821 14.521C12.6027 14.521 12.0513 13.9696 12.0513 13.2903V13.2821C12.0513 12.6027 12.6027 12.0513 13.2821 12.0513C13.9614 12.0513 14.5128 12.6027 14.5128 13.2821Z" fill="currentColor"/>
</svg>
