<?xml version="1.0" encoding="utf-8"?>
<!-- Generator: Adobe Illustrator 26.5.0, SVG Export Plug-In . SVG Version: 6.00 Build 0)  -->
<svg version="1.1" id="Camada_1" xmlns="http://www.w3.org/2000/svg" xmlns:xlink="http://www.w3.org/1999/xlink" x="0px" y="0px"
	 viewBox="0 0 20 20" style="enable-background:new 0 0 20 20;" xml:space="preserve">
<style type="text/css">
	.st0{fill-rule:evenodd;clip-rule:evenodd;fill:#FFFFFF;}
</style>
<path class="st0" d="M5,4.5c0-1.6,1.3-2.8,2.8-2.8c0.8,0,1.6,0.4,2.2,1c1-1.2,2.8-1.4,4-0.4C15,3.2,15.3,4.8,14.5,6h0.7
	c1.3,0,2.4,1.1,2.4,2.4c0,0,0,0,0,0v1.7c0,0.7-0.5,1.3-1.1,1.5c0.1,1.6,0.1,3.2-0.2,4.7c-0.2,0.9-0.9,1.6-1.9,1.8l-0.8,0.1
	c-2.4,0.3-4.8,0.3-7.2,0L5.6,18c-0.9-0.1-1.7-0.8-1.9-1.8c-0.3-1.6-0.3-3.2-0.2-4.7c-0.7-0.2-1.1-0.8-1.1-1.5V8.4
	C2.4,7.1,3.5,6,4.8,6c0,0,0,0,0,0h0.7C5.2,5.5,5,5,5,4.5 M9.4,4.5C9.4,3.6,8.7,3,7.8,3C7,3,6.3,3.6,6.3,4.5c0,0,0,0,0,0
	C6.3,5.3,7,6,7.8,6C8.7,6,9.4,5.3,9.4,4.5 M12.2,6c0.8,0,1.5-0.7,1.5-1.5S13,3,12.2,3s-1.5,0.7-1.5,1.5S11.3,6,12.2,6 M3.7,8.4
	c0-0.6,0.5-1.1,1.1-1.1h4.5v3H3.9c-0.1,0-0.2-0.1-0.2-0.2c0,0,0,0,0,0L3.7,8.4z M10.6,11.6h4.5c0.1,1.5,0.1,3-0.2,4.5
	c-0.1,0.4-0.4,0.6-0.7,0.7l-0.8,0.1c-0.9,0.1-1.9,0.2-2.8,0.2L10.6,11.6z M10.6,10.3h5.4c0.1,0,0.2-0.1,0.2-0.2c0,0,0,0,0,0V8.4
	c0-0.6-0.5-1.1-1.1-1.1h-4.5V10.3z M9.4,11.6V17c-0.9,0-1.9-0.1-2.8-0.2l-0.8-0.1c-0.4,0-0.7-0.3-0.7-0.7c-0.3-1.5-0.3-3-0.2-4.5
	L9.4,11.6z"/>
</svg>
