<?xml version="1.0" encoding="utf-8"?>
<!-- Generator: Adobe Illustrator 26.5.0, SVG Export Plug-In . SVG Version: 6.00 Build 0)  -->
<svg version="1.1" id="Camada_1" xmlns="http://www.w3.org/2000/svg" xmlns:xlink="http://www.w3.org/1999/xlink" x="0px" y="0px"
	 viewBox="0 0 24 24" style="enable-background:new 0 0 24 24;" xml:space="preserve">
<style type="text/css">
	.st0{fill:none;stroke:#FFFFFF;stroke-width:1.5;stroke-linecap:round;stroke-linejoin:round;}
</style>
<path class="st0" d="M3.5,11c0-2.8,0-4.2,0.9-5.1C5.3,5,6.7,5,9.5,5h2c2.8,0,4.2,0,5.1,0.9c0.9,0.9,0.9,2.3,0.9,5.1v5
	c0,2.8,0,4.2-0.9,5.1C15.7,22,14.3,22,11.5,22h-2c-2.8,0-4.2,0-5.1-0.9c-0.9-0.9-0.9-2.3-0.9-5.1V11z"/>
<path class="st0" d="M8.5,11.8l0.4-0.5C9.7,10.4,10,10,10.5,10c0.5,0,0.8,0.4,1.6,1.3l0.4,0.5c0.7,0.8,1,1.2,1,1.7s-0.3,0.9-1,1.7
	l-0.4,0.5C11.3,16.6,11,17,10.5,17c-0.5,0-0.8-0.4-1.6-1.3l-0.4-0.5c-0.7-0.8-1-1.2-1-1.7S7.8,12.6,8.5,11.8"/>
<path class="st0" d="M17.4,19c1.1-0.6,1.5-2,2.2-4.7l1.1-3.8c0.7-2.7,1.1-4,0.5-5.1s-2-1.4-4.8-2.1l-2-0.5c-2.8-0.7-4.2-1.1-5.3-0.5
	C8.4,2.7,7.9,3.6,7.5,5"/>
</svg>
