<?xml version="1.0" encoding="utf-8"?>
<!-- Generator: Adobe Illustrator 26.5.0, SVG Export Plug-In . SVG Version: 6.00 Build 0)  -->
<svg version="1.1" id="Camada_1" xmlns="http://www.w3.org/2000/svg" xmlns:xlink="http://www.w3.org/1999/xlink" x="0px" y="0px"
	 viewBox="0 0 24 24" style="enable-background:new 0 0 24 24;" xml:space="preserve">
<style type="text/css">
	.st0{fill:none;stroke:#FFFFFF;stroke-width:1.5;stroke-linecap:round;stroke-linejoin:round;}
</style>
<path class="st0" d="M8.9,14.7h6.3 M8.9,10.3H12 M13.9,20.5c3.7-0.2,6.7-3.3,7-7.1c0-0.7,0-1.5,0-2.3c-0.2-3.8-3.2-6.8-7-7.1
	c-1.3-0.1-2.6-0.1-3.9,0c-3.7,0.2-6.7,3.3-7,7.1c0,0.8,0,1.5,0,2.3c0.1,1.4,0.7,2.7,1.4,3.7c0.4,0.8,0.1,1.7-0.3,2.5
	c-0.3,0.6-0.5,0.9-0.3,1.1C4,21,4.3,21,4.8,21c1.1,0,1.9-0.3,2.5-0.7c0.3-0.2,0.5-0.4,0.6-0.4c0.1,0,0.3,0.1,0.8,0.3
	c0.4,0.2,0.9,0.3,1.3,0.3C11.3,20.5,12.7,20.5,13.9,20.5"/>
</svg>
