<?xml version="1.0" encoding="utf-8"?>
<!-- Generator: Adobe Illustrator 26.5.0, SVG Export Plug-In . SVG Version: 6.00 Build 0)  -->
<svg version="1.1" id="Camada_1" xmlns="http://www.w3.org/2000/svg" xmlns:xlink="http://www.w3.org/1999/xlink" x="0px" y="0px"
	 viewBox="0 0 24 24" style="enable-background:new 0 0 24 24;" xml:space="preserve">
<style type="text/css">
	.st0{fill:#FFFFFF;stroke:#FFFFFF;stroke-width:0.111;}
</style>
<path class="st0" d="M12,1.7c0.1,0,0.2,0,0.3,0.1C12.5,1.8,14.8,3,17.1,5c2.3,1.9,4.5,4.6,4.5,7.8c0,2.8-2.3,5.1-5.1,5.1
	c-0.6,0-1.1-0.1-1.7-0.3l-0.1,0l0,0.1l0.9,3c0.1,0.4-0.1,0.7-0.5,0.9c-0.1,0-0.1,0-0.2,0H9c-0.2,0-0.4-0.1-0.5-0.2l-0.1-0.1
	c-0.1-0.2-0.2-0.4-0.1-0.6l0.9-3l0-0.1l-0.1,0c-2.7,0.9-5.6-0.5-6.5-3.2c-0.2-0.5-0.3-1.1-0.3-1.7c0-3.1,2.2-5.8,4.5-7.8
	c2.3-1.9,4.6-3.1,4.8-3.2C11.8,1.7,11.9,1.7,12,1.7z M12,3.2c-1.2,0.7-2.4,1.5-3.5,2.3L8,5.9C7,6.7,6,7.7,5.2,8.8
	c-0.8,1.2-1.4,2.5-1.4,3.9c0,2.1,1.7,3.8,3.8,3.8c0.9,0,1.8-0.3,2.5-0.9c0.3-0.2,0.7-0.2,1,0.1c0.1,0.1,0.2,0.3,0.2,0.5l0,0.1
	L10,20.1l0,0.1H14l0-0.1l-1.2-3.8l0-0.1c0-0.4,0.2-0.7,0.6-0.8c0.2,0,0.4,0,0.5,0.2c1.6,1.4,3.9,1.2,5.3-0.4
	c0.6-0.7,0.9-1.6,0.9-2.5c0-1.5-0.7-4-4.2-6.9C14.8,4.8,13.4,3.9,12,3.2L12,3.2L12,3.2z"/>
</svg>
