<?xml version="1.0" encoding="utf-8"?>
<!-- Generator: Adobe Illustrator 26.5.0, SVG Export Plug-In . SVG Version: 6.00 Build 0)  -->
<svg version="1.1" id="Camada_1" xmlns="http://www.w3.org/2000/svg" xmlns:xlink="http://www.w3.org/1999/xlink" x="0px" y="0px"
	 viewBox="0 0 24 24" style="enable-background:new 0 0 24 24;" xml:space="preserve">
<style type="text/css">
	.st0{fill:none;stroke:#FFFFFF;stroke-width:1.5;}
</style>
<path class="st0" d="M12,21c5,0,9-4,9-9c0-5-4-9-9-9c-5,0-9,4-9,9C3,17,7,21,12,21z"/>
<path class="st0" d="M6.6,5.4c0.7,0.6,2.1,2.4,2.3,4.3c0.2,1.8,1.3,3.2,3.1,3.2c0.7,0,1.4-0.5,1.4-1.2c0-0.2,0-0.4-0.1-0.6
	c-0.1-0.3-0.1-0.6,0.1-0.9c0.5-1.1,1.6-1.4,2.5-2.1c0.4-0.3,0.7-0.6,0.9-0.8c0.4-0.6,0.8-1.9,0.6-2.6 M21,12.9
	c-0.3,0.8-0.5,3-3.9,3.1c0,0-3,0-3.9,1.7c-0.7,1.3-0.3,2.8,0,3.4"/>
</svg>
