<?xml version="1.0" encoding="utf-8"?>
<!-- Generator: Adobe Illustrator 26.5.0, SVG Export Plug-In . SVG Version: 6.00 Build 0)  -->
<svg version="1.1" id="Camada_1" xmlns="http://www.w3.org/2000/svg" xmlns:xlink="http://www.w3.org/1999/xlink" x="0px" y="0px"
	 viewBox="0 0 24 24" style="enable-background:new 0 0 24 24;" xml:space="preserve">
<style type="text/css">
	.st0{fill:none;stroke:#FFFFFF;stroke-width:1.5;}
</style>
<path class="st0" d="M14,14V6 M14,14l6.1,3.5c0.3,0.2,0.7,0.1,0.8-0.2C21,17.2,21,17.1,21,17V3c0-0.3-0.3-0.6-0.6-0.6
	c-0.1,0-0.2,0-0.3,0.1L14,6 M14,14H7 M14,6H7c-2.2,0-4,1.8-4,4s1.8,4,4,4 M7,14l0.8,5.3c0.2,1.1,1.2,1.8,2.3,1.7
	c1.1-0.2,1.8-1.1,1.7-2.2L11,14H7z"/>
</svg>
