<?xml version="1.0" encoding="utf-8"?>
<!-- Generator: Adobe Illustrator 26.5.0, SVG Export Plug-In . SVG Version: 6.00 Build 0)  -->
<svg version="1.1" id="Camada_1" xmlns="http://www.w3.org/2000/svg" xmlns:xlink="http://www.w3.org/1999/xlink" x="0px" y="0px"
	 viewBox="0 0 25 24" style="enable-background:new 0 0 25 24;" xml:space="preserve">
<style type="text/css">
	.st0{fill-rule:evenodd;clip-rule:evenodd;fill:#FFFFFF;}
</style>
<path class="st0" d="M3.9,11.3L4.3,11c0.6-0.4,0.9-0.6,1.2-0.8C5.7,10,5.8,9.9,5.9,9.7c0-0.1,0.1-0.3,0-0.6C5.8,8.8,5.7,8.4,5.5,7.7
	L5.4,7.1C4.6,8.4,4,9.8,3.9,11.3 M6.5,5.8L6.5,5.8l0.4,1.6C7.1,8,7.2,8.5,7.3,8.9c0,0.2,0.1,0.4,0,0.6l2.3,1
	c0.1-0.1,0.1-0.1,0.2-0.1l1.7-1.3C11.6,9,11.7,9,11.8,8.9V6.4c-0.2-0.1-0.4-0.2-0.6-0.3c-0.4-0.2-0.8-0.5-1.3-0.9L8.7,4.3
	C7.9,4.7,7.1,5.2,6.5,5.8 M10.2,3.7l0.5,0.4c0.5,0.4,0.9,0.7,1.2,0.8c0.3,0.2,0.4,0.2,0.6,0.2s0.3,0,0.6-0.2
	c0.3-0.2,0.7-0.4,1.2-0.8l0.6-0.4c-0.8-0.2-1.6-0.3-2.4-0.3C11.7,3.4,11,3.5,10.2,3.7 M16.4,4.3C16.4,4.4,16.3,4.4,16.4,4.3l-1.3,1
	c-0.5,0.4-0.9,0.7-1.3,0.9c-0.2,0.1-0.4,0.2-0.6,0.2v2.5c0.1,0,0.2,0.1,0.3,0.2l1.7,1.3c0.1,0,0.1,0.1,0.2,0.2l2.4-1
	c0-0.2,0-0.4,0-0.6C17.8,8.5,18,8,18.1,7.4l0.4-1.5l0,0C17.9,5.3,17.2,4.7,16.4,4.3 M19.6,7.2l-0.1,0.5c-0.2,0.6-0.3,1.1-0.3,1.4
	c0,0.3,0,0.5,0,0.6c0,0.1,0.1,0.3,0.4,0.5c0.3,0.2,0.6,0.5,1.2,0.8l0.3,0.2C20.9,9.8,20.4,8.4,19.6,7.2 M22.5,12.4
	c0-0.1,0-0.2,0-0.4c0-5.5-4.5-10-10-10s-10,4.5-10,10s4.5,10,10,10c5.2,0,9.5-4,10-9.2C22.5,12.7,22.5,12.5,22.5,12.4 M21,12.9
	l-1.1-0.7c-0.5-0.3-0.9-0.6-1.3-0.9c-0.2-0.1-0.3-0.3-0.4-0.4l-2.4,1c0,0.1,0,0.2-0.1,0.3l-0.7,2.2c0,0.1-0.1,0.2-0.1,0.2l1.4,1.6
	c0.2-0.1,0.4-0.1,0.7-0.1c0.4,0,0.9,0,1.6,0h1.6C20.6,15,20.9,14,21,12.9 M19.2,17.3h-0.6c-0.7,0-1.1,0-1.4,0
	c-0.3,0-0.5,0.1-0.6,0.2s-0.2,0.2-0.4,0.5c-0.1,0.3-0.3,0.7-0.5,1.4L15.5,20C17,19.5,18.3,18.6,19.2,17.3 M13.9,20.5l0.5-1.5
	c0.2-0.6,0.4-1.1,0.5-1.5c0.1-0.2,0.2-0.3,0.3-0.5l-1.3-1.5c-0.1,0-0.3,0-0.4,0h-2.1c-0.1,0-0.2,0-0.4,0L9.9,17
	c0.1,0.2,0.2,0.3,0.3,0.5c0.2,0.4,0.3,0.9,0.5,1.5l0.5,1.6C12.1,20.6,13,20.6,13.9,20.5 M9.7,20.1l-0.2-0.7c-0.2-0.6-0.4-1-0.5-1.4
	c-0.1-0.3-0.2-0.4-0.4-0.5S8.3,17.4,8,17.4c-0.3,0-0.8,0-1.4,0H5.8C6.8,18.6,8.1,19.6,9.7,20.1 M4.9,16c0.1,0,0.1,0,0.2,0h1.5
	c0.6,0,1.1,0,1.6,0c0.2,0,0.4,0.1,0.6,0.1l1.2-1.5c0-0.1-0.1-0.2-0.1-0.2l-0.7-2.2c0-0.1-0.1-0.2-0.1-0.3l-2.4-1
	c-0.1,0.2-0.3,0.3-0.4,0.4c-0.3,0.3-0.8,0.6-1.3,0.9l-1.2,0.8C4.1,14,4.4,15,4.9,16 M12.5,10.1c-0.1,0-0.1,0-0.1,0l-1.7,1.3
	c-0.1,0.1-0.1,0.2-0.1,0.3l0.7,2.2c0,0.1,0.1,0.2,0.2,0.2h2.1c0.1,0,0.2-0.1,0.2-0.2l0.7-2.2c0-0.1,0-0.2-0.1-0.3l-1.7-1.3
	C12.6,10.2,12.5,10.1,12.5,10.1"/>
</svg>
