<?xml version="1.0" encoding="utf-8"?>
<!-- Generator: Adobe Illustrator 26.5.0, SVG Export Plug-In . SVG Version: 6.00 Build 0)  -->
<svg version="1.1" id="Camada_1" xmlns="http://www.w3.org/2000/svg" xmlns:xlink="http://www.w3.org/1999/xlink" x="0px" y="0px"
	 viewBox="0 0 20 20" style="enable-background:new 0 0 20 20;" xml:space="preserve">
<style type="text/css">
	.st0{fill:#FFFFFF;}
</style>
<path class="st0" d="M10,2c1.5,0,2.7,0,3.6,0.1c1,0.1,1.7,0.3,2.4,0.8c0.4,0.3,0.8,0.6,1,1c0.5,0.7,0.7,1.4,0.8,2.4
	C18,7.3,18,8.5,18,10V10c0,1.5,0,2.7-0.1,3.6c-0.1,1-0.3,1.7-0.8,2.4c-0.3,0.4-0.6,0.8-1,1c-0.7,0.5-1.4,0.7-2.4,0.8
	C12.7,18,11.5,18,10,18H10c-1.5,0-2.7,0-3.6-0.1c-1-0.1-1.7-0.3-2.4-0.8c-0.4-0.3-0.8-0.6-1-1c-0.5-0.7-0.7-1.4-0.8-2.4
	C2,12.7,2,11.5,2,10V10c0-1.5,0-2.7,0.1-3.6c0.1-1,0.3-1.7,0.8-2.4c0.3-0.4,0.6-0.8,1-1c0.7-0.5,1.4-0.7,2.4-0.8C7.3,2,8.5,2,10,2
	L10,2z M4.7,3.9C4.4,4.1,4.1,4.4,3.9,4.7c-0.3,0.4-0.5,1-0.6,1.8c-0.1,0.9-0.1,2-0.1,3.5c0,1.6,0,2.7,0.1,3.5
	c0.1,0.9,0.3,1.4,0.6,1.8c0.2,0.3,0.5,0.6,0.8,0.8c0.4,0.3,1,0.5,1.8,0.6c0.9,0.1,2,0.1,3.5,0.1c1.6,0,2.7,0,3.5-0.1
	c0.9-0.1,1.4-0.3,1.8-0.6c0.3-0.2,0.6-0.5,0.8-0.8c0.3-0.4,0.5-1,0.6-1.8c0.1-0.9,0.1-2,0.1-3.5c0-1.6,0-2.7-0.1-3.5
	c-0.1-0.9-0.3-1.4-0.6-1.8c-0.2-0.3-0.5-0.6-0.8-0.8c-0.4-0.3-1-0.5-1.8-0.6c-0.9-0.1-2-0.1-3.5-0.1c-1.6,0-2.7,0-3.5,0.1
	C5.6,3.4,5.1,3.6,4.7,3.9z M6.7,5.5c0.7,0,1.2,0.6,1.2,1.2v0C7.9,7.4,7.4,8,6.7,8C6,8,5.5,7.4,5.5,6.7v0C5.5,6,6,5.5,6.7,5.5z
	 M11.2,10L11.2,10c0,0.7-0.6,1.2-1.2,1.2c-0.7,0-1.2-0.6-1.2-1.2v0c0-0.7,0.6-1.2,1.2-1.2C10.7,8.8,11.2,9.3,11.2,10z M14.5,13.3
	L14.5,13.3c0,0.7-0.6,1.2-1.2,1.2c-0.7,0-1.2-0.6-1.2-1.2v0c0-0.7,0.6-1.2,1.2-1.2C14,12.1,14.5,12.6,14.5,13.3z"/>
</svg>
